<svg width="8" height="13" viewBox="0 0 8 13" fill="none" xmlns="http://www.w3.org/2000/svg">
<path d="M7.75619 6.14846L2.41603 0.808405C2.29252 0.684796 2.12765 0.616699 1.95184 0.616699C1.77604 0.616699 1.61116 0.684796 1.48765 0.808405L1.09439 1.20157C0.838486 1.45777 0.838486 1.87415 1.09439 2.12996L5.57864 6.61421L1.08941 11.1034C0.9659 11.2271 0.897705 11.3918 0.897705 11.5675C0.897705 11.7434 0.9659 11.9082 1.08941 12.0319L1.48268 12.425C1.60628 12.5486 1.77106 12.6167 1.94687 12.6167C2.12267 12.6167 2.28755 12.5486 2.41106 12.425L7.75619 7.08006C7.87999 6.95606 7.94799 6.7905 7.9476 6.6145C7.94799 6.43782 7.87999 6.27236 7.75619 6.14846Z" fill="#E9EEF4"/>
</svg>
