<svg width="15" height="25" viewBox="0 0 15 25" fill="none" xmlns="http://www.w3.org/2000/svg">
<path d="M14.5624 11.813L3.97824 1.22908C3.73345 0.984089 3.40666 0.849121 3.05822 0.849121C2.70978 0.849121 2.383 0.984089 2.1382 1.22908L1.35875 2.00833C0.851562 2.5161 0.851562 3.34138 1.35875 3.84838L10.2465 12.7361L1.34889 21.6337C1.10409 21.8787 0.968933 22.2053 0.968933 22.5536C0.968933 22.9022 1.10409 23.2288 1.34889 23.474L2.12834 24.253C2.37333 24.498 2.69992 24.633 3.04836 24.633C3.3968 24.633 3.72358 24.498 3.96838 24.253L14.5624 13.6594C14.8077 13.4137 14.9425 13.0855 14.9417 12.7367C14.9425 12.3865 14.8077 12.0586 14.5624 11.813Z" fill="#E9EEF4"/>
</svg>
