<svg width="7" height="11" viewBox="0 0 7 11" fill="none" xmlns="http://www.w3.org/2000/svg">
<path d="M6.54975 5.38812L2.09962 0.938075C1.9967 0.835068 1.8593 0.77832 1.7128 0.77832C1.5663 0.77832 1.4289 0.835068 1.32597 0.938075L0.998252 1.26571C0.785001 1.47921 0.785001 1.8262 0.998252 2.03937L4.73513 5.77625L0.994105 9.51727C0.891179 9.62028 0.834351 9.7576 0.834351 9.90402C0.834351 10.0506 0.891179 10.1879 0.994105 10.291L1.32183 10.6186C1.42483 10.7216 1.56215 10.7783 1.70865 10.7783C1.85516 10.7783 1.99255 10.7216 2.09548 10.6186L6.54975 6.16446C6.65292 6.06112 6.70959 5.92316 6.70926 5.77649C6.70959 5.62926 6.65292 5.49137 6.54975 5.38812Z" fill="#FEB109"/>
</svg>
