<svg width="46" height="46" viewBox="0 0 46 46" fill="none" xmlns="http://www.w3.org/2000/svg">
<path d="M21.4329 23.9152V3.61087C21.4329 3.09337 21.0128 2.67334 20.4953 2.67334C9.63909 2.67334 0.807861 12.3465 0.807861 24.2358C0.807861 36.1251 10.481 45.7983 22.3703 45.7983C27.6897 45.7983 30.5677 44.8346 34.2165 41.8345C34.6084 41.512 34.6721 40.9364 34.3609 40.5351L21.4329 23.9152ZM22.3703 43.9233C11.5141 43.9233 2.68283 35.0921 2.68283 24.2359C2.68283 13.7284 10.1697 5.11652 19.5578 4.57467V24.2359C19.5578 24.444 19.6271 24.6465 19.7565 24.8115L32.3115 40.9533C29.3509 43.2146 26.8815 43.9233 22.3703 43.9233Z" fill="#E9EEF4"/>
<path d="M24.2453 23.2983H44.8703C45.3878 23.2983 45.8079 22.8783 45.8079 22.3608C45.8078 10.4715 36.1346 0.79834 24.2453 0.79834C23.7278 0.79834 23.3078 1.21837 23.3078 1.73587V22.3609C23.3078 22.8783 23.7278 23.2983 24.2453 23.2983ZM25.1828 2.69581C35.2947 3.17209 43.434 11.3114 43.9102 21.4232H25.1828V2.69581Z" fill="#E9EEF4"/>
<path d="M44.8702 25.1733H26.1203C25.7603 25.1733 25.4284 25.3815 25.2728 25.7077C25.1171 26.034 25.1641 26.4202 25.3909 26.6996L37.5784 41.7876C37.7415 41.992 37.9816 42.1157 38.2422 42.1345C38.2647 42.1364 38.2853 42.1364 38.3078 42.1364C38.5441 42.1364 38.7728 42.0464 38.9472 41.8851C43.3065 37.8183 45.8078 32.0696 45.8078 26.1109C45.8078 25.5934 45.3877 25.1733 44.8702 25.1733ZM38.3884 39.8059L28.0834 27.0484H43.9103C43.6797 31.8146 41.7072 36.3727 38.3884 39.8059Z" fill="#E9EEF4"/>
</svg>
