<svg width="48" height="47" viewBox="0 0 48 47" fill="none" xmlns="http://www.w3.org/2000/svg">
<path fill-rule="evenodd" clip-rule="evenodd" d="M23.508 46.999C10.5503 46.999 0.00802612 36.4568 0.00802612 23.499C0.00802612 10.5413 10.5503 -0.000976562 23.508 -0.000976562C36.4658 -0.000976562 47.008 10.5413 47.008 23.499C47.008 36.4568 36.4658 46.999 23.508 46.999ZM23.508 1.56557C11.4136 1.56557 1.57457 11.4046 1.57457 23.499C1.57457 35.593 11.4136 45.432 23.508 45.432C35.602 45.432 45.441 35.593 45.441 23.499C45.441 11.4046 35.602 1.56557 23.508 1.56557ZM23.508 43.7489C12.3424 43.7489 3.25808 34.6646 3.25808 23.4989C3.25808 12.3332 12.3424 3.24895 23.508 3.24895C34.6737 3.24895 43.758 12.3332 43.758 23.4989C43.758 34.6646 34.6737 43.7489 23.508 43.7489ZM23.508 4.74883C13.1689 4.74883 4.75796 13.1598 4.75796 23.4989C4.75796 33.8376 13.1689 42.2485 23.508 42.2485C33.8467 42.2485 42.2577 33.8376 42.2577 23.4989C42.2577 13.1598 33.8467 4.74883 23.508 4.74883ZM24.2578 27.8218V37.0786L30.248 26.188L24.2578 27.8218ZM24.1791 40.334L32.403 25.3814C32.4144 25.3621 32.4251 25.3421 32.4348 25.3216C32.5264 25.1305 32.532 24.91 32.4519 24.7152C32.4484 24.7065 32.4447 24.698 32.4408 24.6895L24.1942 5.94716C24.0766 5.67894 23.8136 5.50384 23.5205 5.49869C23.2325 5.50642 22.9578 5.65919 22.8321 5.92441L13.8413 24.655C13.7264 24.8781 13.7262 25.1539 13.865 25.3851L22.8556 40.3695C22.9845 40.5961 23.2283 40.7487 23.508 40.7487C23.5123 40.7487 23.5175 40.7487 23.5218 40.7492C23.7087 40.7456 23.8845 40.6728 24.0175 40.5494C24.0835 40.4882 24.1385 40.4153 24.1791 40.334ZM22.7579 37.2916V27.8343L16.0821 26.1653L22.7579 37.2916ZM24.2578 26.2676L30.7208 24.5045L24.2578 9.8148V26.2676ZM22.7579 26.2888V9.54636L15.5824 24.4942L22.7579 26.2888Z" fill="#E9EEF4"/>
</svg>
