<svg width="9" height="16" viewBox="0 0 9 16" fill="none" xmlns="http://www.w3.org/2000/svg">
<path d="M8.08035 9.04843L8.49635 6.3356H5.89274V4.5688C5.87463 4.3662 5.90228 4.16213 5.97367 3.97166C6.04505 3.78119 6.15833 3.6092 6.30514 3.46841C6.45195 3.32761 6.62852 3.22162 6.82181 3.15826C7.01509 3.0949 7.22015 3.0758 7.42182 3.10237H8.60557V0.799109C7.91068 0.686921 7.20851 0.625723 6.50469 0.616005C6.02042 0.579131 5.53396 0.649218 5.07979 0.821299C4.62562 0.993379 4.21485 1.26324 3.8766 1.61176C3.53835 1.96028 3.28089 2.37893 3.12246 2.83805C2.96404 3.29716 2.90852 3.78549 2.95986 4.26845V6.3356H0.576294V9.04843H2.95986V15.6064H5.89274V9.04843H8.08035Z" fill="#EDEDED"/>
</svg>
