<svg width="46" height="46" viewBox="0 0 46 46" fill="none" xmlns="http://www.w3.org/2000/svg">
<path d="M45.4082 26.2887C45.171 25.8839 44.8419 25.5408 44.4474 25.2869C44.053 25.0331 43.6043 24.8757 43.1377 24.8274C44.5385 23.5184 45.4385 21.7615 45.6825 19.8598C45.9266 17.9581 45.4993 16.0309 44.4745 14.4106C43.4496 12.7902 41.8914 11.5783 40.0686 10.9839C38.2458 10.3894 36.2728 10.4497 34.4897 11.1544C32.7066 11.8591 31.2253 13.1639 30.3014 14.8438C29.3774 16.5237 29.0687 18.4735 29.4284 20.3567C29.7881 22.2399 30.7938 23.9385 32.2719 25.1596C33.75 26.3807 35.6079 27.0477 37.5252 27.0455C37.6601 27.0455 37.7875 27.0305 37.9149 27.023L27.7689 32.4482C27.7689 32.3957 27.7839 32.3433 27.7839 32.2908C27.7839 31.2971 27.3891 30.3442 26.6865 29.6415C25.9839 28.9389 25.0309 28.5441 24.0372 28.5441H9.05053C8.93323 28.5448 8.81773 28.5731 8.71333 28.6266L6.75757 29.6007C6.65544 29.0916 6.3802 28.6335 5.9786 28.3043C5.577 27.9751 5.07381 27.7951 4.55453 27.7948H3.05586C2.4602 27.7966 1.88945 28.034 1.46825 28.4552C1.04705 28.8764 0.80964 29.4472 0.807861 30.0428V43.5308C0.80964 44.1265 1.04705 44.6972 1.46825 45.1184C1.88945 45.5396 2.4602 45.777 3.05586 45.7788H4.55453C5.11277 45.7775 5.6504 45.5678 6.06208 45.1908C6.47376 44.8138 6.72981 44.2966 6.78005 43.7406L8.87069 44.2577C8.92949 44.2725 8.98989 44.2801 9.05053 44.2802H19.3464C20.0063 44.2789 20.6544 44.1058 21.2272 43.7781L44.3217 30.3725C45.0054 29.9733 45.5035 29.3198 45.7071 28.5546C45.9107 27.7895 45.8032 26.9749 45.4082 26.2887ZM5.30386 43.5308C5.30386 43.7296 5.22492 43.9201 5.08439 44.0607C4.94386 44.2012 4.75326 44.2802 4.55453 44.2802H3.05586C2.85713 44.2802 2.66653 44.2012 2.526 44.0607C2.38548 43.9201 2.30653 43.7296 2.30653 43.5308V30.0428C2.30653 29.8441 2.38548 29.6535 2.526 29.513C2.66653 29.3724 2.85713 29.2935 3.05586 29.2935H4.55453C4.75326 29.2935 4.94386 29.3724 5.08439 29.513C5.22492 29.6535 5.30386 29.8441 5.30386 30.0428V43.5308ZM37.5252 25.5468C36.1914 25.5468 34.8875 25.1513 33.7784 24.4102C32.6694 23.6692 31.805 22.6159 31.2946 21.3836C30.7841 20.1513 30.6506 18.7953 30.9108 17.4871C31.171 16.1789 31.8133 14.9772 32.7565 14.0341C33.6996 13.0909 34.9013 12.4486 36.2095 12.1884C37.5177 11.9282 38.8737 12.0617 40.106 12.5722C41.3383 13.0826 42.3916 13.947 43.1326 15.056C43.8737 16.1651 44.2692 17.469 44.2692 18.8028C44.2664 20.5906 43.555 22.3043 42.2909 23.5685C41.0267 24.8326 39.313 25.544 37.5252 25.5468ZM43.5723 29.0762L20.4779 42.4743C20.1344 42.6748 19.7441 42.7808 19.3464 42.7815H9.14045L6.80253 42.2045V31.2567L9.23037 30.0428H24.0372C24.6334 30.0428 25.2052 30.2797 25.6268 30.7012C26.0484 31.1228 26.2852 31.6946 26.2852 32.2908C26.2852 32.887 26.0484 33.4588 25.6268 33.8804C25.2052 34.302 24.6334 34.5388 24.0372 34.5388H12.7972V36.0375H24.0372C24.6109 36.0359 25.1765 35.9019 25.6899 35.6458C26.2033 35.3898 26.6507 35.0186 26.9971 34.5613L42.0886 26.4985C42.4299 26.3115 42.8308 26.2656 43.2054 26.3707C43.58 26.4759 43.8985 26.7236 44.0927 27.0608C44.2868 27.3981 44.341 27.7979 44.2437 28.1747C44.1464 28.5514 43.9054 28.8751 43.5723 29.0762Z" fill="#E9EEF4"/>
<path d="M23.2879 0.818848C21.6576 0.818848 20.064 1.30227 18.7085 2.20799C17.353 3.1137 16.2965 4.40103 15.6726 5.90718C15.0488 7.41334 14.8855 9.07066 15.2036 10.6696C15.5216 12.2685 16.3067 13.7372 17.4594 14.89C18.6122 16.0427 20.0809 16.8278 21.6798 17.1458C23.2787 17.4639 24.9361 17.3006 26.4422 16.6768C27.9484 16.0529 29.2357 14.9964 30.1414 13.6409C31.0471 12.2854 31.5305 10.6918 31.5305 9.06152C31.5292 6.87585 30.6603 4.7801 29.1148 3.2346C27.5693 1.68911 25.4735 0.820237 23.2879 0.818848ZM23.2879 15.8055C21.954 15.8055 20.6501 15.41 19.5411 14.669C18.4321 13.9279 17.5677 12.8746 17.0572 11.6423C16.5468 10.41 16.4132 9.05404 16.6735 7.74583C16.9337 6.43762 17.576 5.23595 18.5191 4.29279C19.4623 3.34962 20.664 2.70732 21.9722 2.4471C23.2804 2.18688 24.6364 2.32043 25.8687 2.83087C27.101 3.34131 28.1543 4.2057 28.8953 5.31475C29.6363 6.4238 30.0319 7.72768 30.0319 9.06152C30.0291 10.8493 29.3177 12.563 28.0535 13.8272C26.7894 15.0913 25.0756 15.8027 23.2879 15.8055Z" fill="#E9EEF4"/>
<path d="M9.05053 10.5601C7.42029 10.5601 5.82665 11.0435 4.47115 11.9492C3.11565 12.8549 2.05917 14.1422 1.4353 15.6484C0.811433 17.1545 0.6482 18.8119 0.966246 20.4108C1.28429 22.0097 2.06933 23.4784 3.22209 24.6312C4.37485 25.7839 5.84355 26.569 7.44247 26.887C9.04139 27.2051 10.6987 27.0418 12.2049 26.418C13.711 25.7941 14.9983 24.7376 15.9041 23.3821C16.8098 22.0266 17.2932 20.433 17.2932 18.8027C17.2918 16.6171 16.4229 14.5213 14.8774 12.9758C13.3319 11.4303 11.2362 10.5614 9.05053 10.5601ZM9.05053 25.5467C7.7167 25.5467 6.41281 25.1512 5.30377 24.4102C4.19472 23.6691 3.33033 22.6159 2.81989 21.3835C2.30945 20.1512 2.1759 18.7952 2.43612 17.487C2.69634 16.1788 3.33864 14.9772 4.2818 14.034C5.22497 13.0908 6.42664 12.4485 7.73485 12.1883C9.04305 11.9281 10.399 12.0616 11.6314 12.5721C12.8637 13.0825 13.9169 13.9469 14.658 15.056C15.399 16.165 15.7945 17.4689 15.7945 18.8027C15.7918 20.5905 15.0803 22.3042 13.8162 23.5684C12.5521 24.8325 10.8383 25.544 9.05053 25.5467Z" fill="#E9EEF4"/>
<path d="M8.30122 3.37691V8.31202H9.79988V3.37691L11.5181 5.09513L12.5777 4.03558L9.58033 1.03824C9.43981 0.897764 9.24925 0.818848 9.05055 0.818848C8.85185 0.818848 8.66129 0.897764 8.52077 1.03824L5.52344 4.03558L6.58299 5.09513L8.30122 3.37691Z" fill="#E9EEF4"/>
<path d="M24.0372 27.0454V22.1103L25.7554 23.8285L26.815 22.769L23.8177 19.7716C23.6771 19.6312 23.4866 19.5522 23.2879 19.5522C23.0892 19.5522 22.8986 19.6312 22.7581 19.7716L19.7608 22.769L20.8203 23.8285L22.5386 22.1103V27.0454H24.0372Z" fill="#E9EEF4"/>
<path d="M36.7759 3.37691V8.31202H38.2746V3.37691L39.9928 5.09513L41.0523 4.03558L38.055 1.03824C37.9145 0.897764 37.7239 0.818848 37.5252 0.818848C37.3265 0.818848 37.136 0.897764 36.9954 1.03824L33.9981 4.03558L35.0577 5.09513L36.7759 3.37691Z" fill="#E9EEF4"/>
<path d="M12.7972 17.3043C12.7969 16.8392 12.6517 16.3858 12.3817 16.0071C12.1118 15.6284 11.7306 15.3432 11.291 15.1912L11.2985 13.5576H9.79986L9.79237 15.0563H8.2937L8.3012 13.5576H6.80253L6.79504 15.0563H5.30386V16.555H6.80253V21.051H5.30386V22.5496H6.79504L6.78754 24.0183L8.28621 24.0258L8.2937 22.5496H9.79237L9.78488 24.0183L11.2835 24.0258L11.2985 22.4147C11.7352 22.2592 12.1133 21.9729 12.3815 21.5948C12.6497 21.2167 12.7948 20.7652 12.7972 20.3016C12.7958 19.7467 12.5873 19.2123 12.2127 18.803C12.5873 18.3936 12.7958 17.8592 12.7972 17.3043ZM10.5492 21.051H8.3012V19.5523H10.5492C10.7479 19.5523 10.9385 19.6312 11.0791 19.7718C11.2196 19.9123 11.2985 20.1029 11.2985 20.3016C11.2985 20.5004 11.2196 20.691 11.0791 20.8315C10.9385 20.972 10.7479 21.051 10.5492 21.051ZM10.5492 18.0536H8.3012V16.555H10.5492C10.7479 16.555 10.9385 16.6339 11.0791 16.7744C11.2196 16.915 11.2985 17.1055 11.2985 17.3043C11.2985 17.503 11.2196 17.6936 11.0791 17.8341C10.9385 17.9747 10.7479 18.0536 10.5492 18.0536Z" fill="#E9EEF4"/>
<path d="M41.2719 17.3043C41.2716 16.8392 41.1263 16.3858 40.8564 16.0071C40.5865 15.6284 40.2052 15.3432 39.7657 15.1912L39.7732 13.5576H38.2745L38.267 15.0563H36.7684L36.7759 13.5576H35.2772L35.2697 15.0563H33.7785V16.555H35.2772V21.051H33.7785V22.5496H35.2697L35.2622 24.0183L36.7609 24.0258L36.7684 22.5496H38.267L38.2595 24.0183L39.7582 24.0258L39.7732 22.4147C40.2099 22.2592 40.588 21.9729 40.8562 21.5948C41.1243 21.2167 41.2695 20.7652 41.2719 20.3016C41.2704 19.7467 41.062 19.2123 40.6874 18.803C41.062 18.3936 41.2704 17.8592 41.2719 17.3043ZM39.0239 21.051H36.7759V19.5523H39.0239C39.2226 19.5523 39.4132 19.6312 39.5537 19.7718C39.6943 19.9123 39.7732 20.1029 39.7732 20.3016C39.7732 20.5004 39.6943 20.691 39.5537 20.8315C39.4132 20.972 39.2226 21.051 39.0239 21.051ZM39.0239 18.0536H36.7759V16.555H39.0239C39.2226 16.555 39.4132 16.6339 39.5537 16.7744C39.6943 16.915 39.7732 17.1055 39.7732 17.3043C39.7732 17.503 39.6943 17.6936 39.5537 17.8341C39.4132 17.9747 39.2226 18.0536 39.0239 18.0536Z" fill="#E9EEF4"/>
<path d="M27.0345 7.56307C27.0342 7.098 26.889 6.64459 26.6191 6.26587C26.3491 5.88716 25.9679 5.60197 25.5284 5.44995L25.5359 3.81641H24.0372L24.0297 5.31507H22.531L22.5385 3.81641H21.0399L21.0324 5.31507H19.5412V6.81374H21.0399V11.3097H19.5412V12.8084H21.0324L21.0249 14.2771L22.5235 14.2846L22.531 12.8084H24.0297L24.0222 14.2771L25.5209 14.2846L25.5359 12.6735C25.9725 12.518 26.3507 12.2317 26.6188 11.8536C26.887 11.4755 27.0321 11.0239 27.0345 10.5604C27.0331 10.0055 26.8247 9.47111 26.4501 9.06174C26.8247 8.65238 27.0331 8.11798 27.0345 7.56307ZM24.7865 11.3097H22.5385V9.81108H24.7865C24.9853 9.81108 25.1759 9.89002 25.3164 10.0306C25.4569 10.1711 25.5359 10.3617 25.5359 10.5604C25.5359 10.7591 25.4569 10.9497 25.3164 11.0903C25.1759 11.2308 24.9853 11.3097 24.7865 11.3097ZM24.7865 8.31241H22.5385V6.81374H24.7865C24.9853 6.81374 25.1759 6.89269 25.3164 7.03322C25.4569 7.17374 25.5359 7.36434 25.5359 7.56307C25.5359 7.76181 25.4569 7.95241 25.3164 8.09293C25.1759 8.23346 24.9853 8.31241 24.7865 8.31241Z" fill="#E9EEF4"/>
</svg>
