<svg width="16" height="16" viewBox="0 0 16 16" fill="none" xmlns="http://www.w3.org/2000/svg">
<path d="M8.26698 4.26387C7.5062 4.26276 6.76218 4.48734 6.12907 4.9092C5.49596 5.33106 5.00221 5.93124 4.7103 6.63379C4.41839 7.33635 4.34144 8.1097 4.48918 8.856C4.63692 9.6023 5.00271 10.288 5.54027 10.8264C6.07783 11.3647 6.76301 11.7315 7.50909 11.8803C8.25518 12.0292 9.02864 11.9533 9.73162 11.6625C10.4346 11.3716 11.0355 10.8787 11.4583 10.2462C11.8811 9.61373 12.1067 8.87004 12.1067 8.10926C12.1075 7.60454 12.0087 7.10463 11.8161 6.63812C11.6234 6.17161 11.3407 5.74765 10.9841 5.3905C10.6275 5.03335 10.2039 4.75001 9.7377 4.55669C9.27147 4.36338 8.7717 4.26387 8.26698 4.26387ZM8.26698 10.6085C7.77245 10.6096 7.2887 10.464 6.87696 10.19C6.46523 9.91608 6.14402 9.52614 5.954 9.06957C5.76398 8.613 5.71368 8.11031 5.80948 7.62514C5.90528 7.13997 6.14286 6.69413 6.49216 6.34404C6.84145 5.99396 7.28676 5.75537 7.77171 5.65848C8.25667 5.56159 8.75946 5.61075 9.21646 5.79975C9.67346 5.98874 10.0641 6.30907 10.339 6.72018C10.6139 7.1313 10.7606 7.61472 10.7606 8.10926C10.7591 8.77066 10.4961 9.40464 10.0289 9.87285C9.56177 10.3411 8.92838 10.6055 8.26698 10.6085ZM13.1604 4.10076C13.1604 4.27801 13.1079 4.45128 13.0094 4.59866C12.9109 4.74604 12.771 4.8609 12.6072 4.92873C12.4434 4.99656 12.2632 5.01431 12.0894 4.97973C11.9156 4.94515 11.7559 4.8598 11.6305 4.73446C11.5052 4.60913 11.4198 4.44944 11.3853 4.2756C11.3507 4.10175 11.3684 3.92156 11.4363 3.7578C11.5041 3.59404 11.619 3.45408 11.7663 3.3556C11.9137 3.25713 12.087 3.20456 12.2642 3.20456C12.382 3.20432 12.4986 3.22733 12.6075 3.27228C12.7163 3.31723 12.8152 3.38323 12.8985 3.4665C12.9818 3.54977 13.0478 3.64866 13.0927 3.75751C13.1377 3.86635 13.1607 3.983 13.1604 4.10076ZM15.7065 5.01195C15.7311 3.8461 15.2961 2.71738 14.4953 1.86965C13.646 1.07151 12.5184 0.636881 11.353 0.658473C10.1156 0.589103 6.40335 0.589103 5.16593 0.658473C3.99986 0.635788 2.87125 1.07054 2.02175 1.86965C1.22224 2.71814 0.787378 3.84635 0.810575 5.01195C0.741204 6.24937 0.741204 9.96164 0.810575 11.1991C0.785469 12.3656 1.22056 13.495 2.02175 14.3432C2.87143 15.1409 3.99884 15.5754 5.16405 15.5544C6.40148 15.6238 10.1137 15.6238 11.3512 15.5544C12.517 15.579 13.6457 15.144 14.4935 14.3432C15.2916 13.4939 15.7262 12.3663 15.7046 11.2009C15.774 9.96352 15.774 6.255 15.7046 5.01383L15.7065 5.01195ZM14.1072 12.5377C13.98 12.8602 13.7878 13.153 13.5427 13.3981C13.2976 13.6432 13.0048 13.8354 12.6823 13.9626C11.2304 14.2582 9.74531 14.3572 8.26698 14.257C6.78646 14.3537 5.29965 14.2522 3.84601 13.9551C3.52359 13.8279 3.23075 13.6357 2.98564 13.3906C2.74053 13.1455 2.54838 12.8527 2.4211 12.5302C2.12001 11.0771 2.01596 9.59012 2.11174 8.10926C2.01504 6.62873 2.11655 5.14192 2.4136 3.68828C2.54088 3.36586 2.73303 3.07302 2.97814 2.82791C3.22325 2.5828 3.51609 2.39065 3.83851 2.26337C5.2943 1.9635 6.78388 1.86133 8.26698 1.95964C9.74751 1.86293 11.2343 1.96445 12.688 2.2615C13.0104 2.38878 13.3032 2.58093 13.5483 2.82604C13.7934 3.07114 13.9856 3.36399 14.1129 3.68641C14.4114 5.13984 14.513 6.62686 14.4147 8.10738C14.5121 9.59127 14.4087 11.0815 14.1072 12.5377Z" />
</svg>
