<svg width="16" height="16" viewBox="0 0 16 16" fill="none" xmlns="http://www.w3.org/2000/svg">
<path d="M3.46068 15.5993H0.353157V5.59677H3.46068V15.5993ZM1.90598 4.22938C1.54856 4.23086 1.19873 4.12634 0.900699 3.92904C0.602669 3.73173 0.369823 3.4505 0.231593 3.12089C0.0933635 2.79128 0.055955 2.42809 0.124096 2.07722C0.192238 1.72635 0.36287 1.40357 0.614425 1.14965C0.86598 0.895744 1.18716 0.72211 1.53738 0.650701C1.8876 0.579292 2.25112 0.613313 2.58201 0.748465C2.91289 0.883616 3.19628 1.11383 3.39636 1.41001C3.59643 1.70619 3.7042 2.05503 3.70606 2.41245C3.70707 2.8919 3.51833 3.35227 3.18107 3.69304C2.84381 4.03381 2.38541 4.2273 1.90598 4.23126V4.22938ZM15.0909 15.5993H11.9872V10.7291C11.9872 9.56781 11.9628 8.08054 10.3725 8.08054C8.78224 8.08054 8.51064 9.34116 8.51064 10.6467V15.5993H5.40686V5.59677H8.38514V6.96228H8.42822C8.72604 6.45218 9.15668 6.03243 9.67423 5.74776C10.1918 5.46309 10.7769 5.32416 11.3672 5.34577C14.514 5.34577 15.0909 7.41558 15.0909 10.1054V15.5993Z" />
</svg>
