<svg width="115" height="93" viewBox="0 0 115 93" fill="none" xmlns="http://www.w3.org/2000/svg">
<g opacity="0.52" filter="url(#filter0_d_110_85)">
<mask id="path-1-inside-1_110_85" fill="white">
<path fill-rule="evenodd" clip-rule="evenodd" d="M40.4076 42.647C37.4196 40.9493 34.0433 40.0532 30.6067 40.0458V39.9529C27.9429 39.8234 25.2807 40.2363 22.7812 41.1664C20.2818 42.0966 17.9974 43.5247 16.0664 45.3641C14.1354 47.2035 12.5981 49.4159 11.5477 51.8672C10.4973 54.3185 9.95563 56.9576 9.95563 59.6245C9.95563 62.2914 10.4973 64.9305 11.5477 67.3818C12.5981 69.8331 14.1354 72.0455 16.0664 73.8849C17.9974 75.7243 20.2818 77.1524 22.7812 78.0826C25.2807 79.0127 27.9429 79.4256 30.6067 79.2961C33.712 79.3096 36.7789 78.6104 39.5715 77.2523C43.7048 75.3974 47.2167 72.3918 49.6878 68.5947C52.1589 64.7975 53.4846 60.3692 53.5066 55.8388C53.5066 42.8792 45.2385 21.9767 26.6584 6.8804C26.1465 6.4071 25.5432 6.04356 24.8856 5.81215C24.2279 5.58074 23.5299 5.48636 22.8344 5.53482C22.1389 5.58328 21.4607 5.77354 20.8416 6.09392C20.2224 6.41429 19.6753 6.85799 19.234 7.3977C18.7927 7.93742 18.4665 8.56173 18.2755 9.23222C18.0845 9.90272 18.0328 10.6052 18.1234 11.2964C18.2141 11.9877 18.4453 12.6531 18.8027 13.2516C19.1601 13.8502 19.6363 14.3693 20.2018 14.7769C29.2375 22.1598 36.2002 31.7635 40.4076 42.647ZM92.1531 42.6473C89.1635 40.9535 85.7883 40.0577 82.3522 40.0461H82.2593C79.5955 39.9166 76.9333 40.3295 74.4339 41.2597C71.9344 42.1898 69.65 43.6179 67.719 45.4573C65.788 47.2968 64.2507 49.5092 63.2003 51.9605C62.1499 54.4118 61.6082 57.0509 61.6082 59.7178C61.6082 62.3846 62.1499 65.0237 63.2003 67.475C64.2507 69.9263 65.788 72.1387 67.719 73.9782C69.65 75.8176 71.9344 77.2457 74.4339 78.1758C76.9333 79.106 79.5955 79.5189 82.2593 79.3894C85.2856 79.3631 88.2682 78.665 90.9919 77.3456C95.2004 75.5326 98.7899 72.5334 101.322 68.7143C103.855 64.8952 105.22 60.4214 105.252 55.8392C105.252 42.8796 96.984 21.977 78.4039 6.88074C77.8854 6.45375 77.2879 6.13306 76.6455 5.93699C76.003 5.74092 75.3283 5.6733 74.6597 5.738C73.9912 5.8027 73.3419 5.99845 72.749 6.31407C72.1561 6.62969 71.6311 7.05901 71.2041 7.5775C70.7771 8.09599 70.4565 8.69351 70.2604 9.33594C70.0643 9.97836 69.9967 10.6531 70.0614 11.3217C70.1261 11.9902 70.3218 12.6395 70.6375 13.2324C70.9531 13.8253 71.3824 14.3503 71.9009 14.7773C80.963 22.1456 87.944 31.7525 92.1531 42.6473Z"/>
</mask>
<path d="M30.6067 40.0458L30.6045 41.0458L29.6067 41.0436V40.0458H30.6067ZM40.4076 42.647L41.3404 42.2864L42.3513 44.9015L39.9136 43.5165L40.4076 42.647ZM30.6067 39.9529L30.6552 38.9541L31.6067 39.0003V39.9529H30.6067ZM16.0664 45.3641L15.3767 44.64L16.0664 45.3641ZM11.5477 51.8672L12.4668 52.2611V52.2611L11.5477 51.8672ZM11.5477 67.3818L12.4668 66.9879V66.9879L11.5477 67.3818ZM16.0664 73.8849L16.7561 73.1609L16.0664 73.8849ZM30.6067 79.2961L30.5581 78.2973L30.5845 78.296L30.611 78.2961L30.6067 79.2961ZM39.5715 77.2523L39.1342 76.353L39.1481 76.3463L39.1621 76.34L39.5715 77.2523ZM53.5066 55.8388H54.5066L54.5066 55.8437L53.5066 55.8388ZM26.6584 6.8804L26.0278 7.65652L26.003 7.63635L25.9795 7.61463L26.6584 6.8804ZM24.8856 5.81215L24.5536 6.75545V6.75545L24.8856 5.81215ZM22.8344 5.53482L22.9039 6.5324L22.8344 5.53482ZM20.8416 6.09392L21.3011 6.98207L21.3011 6.98208L20.8416 6.09392ZM18.2755 9.23222L17.3138 8.95828L18.2755 9.23222ZM18.1234 11.2964L17.1319 11.4265V11.4265L18.1234 11.2964ZM18.8027 13.2516L17.9441 13.7643L17.9441 13.7643L18.8027 13.2516ZM20.2018 14.7769L20.7866 13.9657L20.8111 13.9834L20.8346 14.0025L20.2018 14.7769ZM82.3522 40.0461V39.0461L82.3555 39.0461L82.3522 40.0461ZM92.1531 42.6473L93.0859 42.287L94.094 44.8963L91.6602 43.5174L92.1531 42.6473ZM82.2593 40.0461V41.0461H82.235L82.2107 41.0449L82.2593 40.0461ZM67.719 45.4573L68.4087 46.1814L67.719 45.4573ZM63.2003 51.9605L62.2811 51.5666L63.2003 51.9605ZM63.2003 67.475L62.2811 67.8689L63.2003 67.475ZM67.719 73.9782L67.0293 74.7022L67.719 73.9782ZM82.2593 79.3894L82.2107 78.3906L82.2306 78.3896L82.2506 78.3894L82.2593 79.3894ZM90.9919 77.3456L90.5559 76.4456L90.5759 76.4359L90.5962 76.4272L90.9919 77.3456ZM101.322 68.7143L102.156 69.267H102.156L101.322 68.7143ZM105.252 55.8392H106.252L106.252 55.8462L105.252 55.8392ZM78.4039 6.88074L77.7733 7.65687L77.7682 7.65267L78.4039 6.88074ZM76.6455 5.93699L76.9374 4.98055V4.98055L76.6455 5.93699ZM72.749 6.31407L73.2189 7.19679L73.2189 7.19679L72.749 6.31407ZM71.2041 7.5775L70.4322 6.94179V6.94179L71.2041 7.5775ZM70.0614 11.3217L69.066 11.418V11.418L70.0614 11.3217ZM70.6375 13.2324L69.7547 13.7023V13.7023L70.6375 13.2324ZM71.9009 14.7773L71.27 15.5532L71.2652 15.5492L71.9009 14.7773ZM30.6088 39.0458C34.2179 39.0536 37.7637 39.9946 40.9016 41.7775L39.9136 43.5165C37.0756 41.9039 33.8687 41.0528 30.6045 41.0458L30.6088 39.0458ZM31.6067 39.9529V40.0458H29.6067V39.9529H31.6067ZM22.4325 40.2292C25.0588 39.2518 27.8562 38.818 30.6552 38.9541L30.5581 40.9517C28.0296 40.8288 25.5025 41.2207 23.13 42.1036L22.4325 40.2292ZM15.3767 44.64C17.4057 42.7072 19.8062 41.2066 22.4325 40.2292L23.13 42.1036C20.7575 42.9866 18.5891 44.3421 16.7561 46.0882L15.3767 44.64ZM10.6285 51.4734C11.7322 48.8976 13.3476 46.5728 15.3767 44.64L16.7561 46.0882C14.9232 47.8342 13.4639 49.9343 12.4668 52.2611L10.6285 51.4734ZM8.95563 59.6245C8.95563 56.8222 9.52476 54.0491 10.6285 51.4734L12.4668 52.2611C11.4697 54.5879 10.9556 57.093 10.9556 59.6245H8.95563ZM10.6285 67.7756C9.52476 65.1999 8.95563 62.4268 8.95563 59.6245H10.9556C10.9556 62.156 11.4697 64.6611 12.4668 66.9879L10.6285 67.7756ZM15.3767 74.609C13.3476 72.6762 11.7322 70.3514 10.6285 67.7756L12.4668 66.9879C13.4639 69.3147 14.9232 71.4148 16.7561 73.1609L15.3767 74.609ZM22.4325 79.0198C19.8062 78.0424 17.4057 76.5418 15.3767 74.609L16.7561 73.1609C18.5891 74.9069 20.7575 76.2625 23.13 77.1454L22.4325 79.0198ZM30.6552 80.295C27.8562 80.431 25.0588 79.9972 22.4325 79.0198L23.13 77.1454C25.5025 78.0283 28.0296 78.4202 30.5581 78.2973L30.6552 80.295ZM40.0089 78.1516C37.0787 79.5766 33.8606 80.3102 30.6023 80.2961L30.611 78.2961C33.5633 78.3089 36.4792 77.6441 39.1342 76.353L40.0089 78.1516ZM50.526 69.1401C47.9502 73.0982 44.2894 76.2311 39.981 78.1647L39.1621 76.34C43.1202 74.5637 46.4833 71.6855 48.8496 68.0492L50.526 69.1401ZM54.5066 55.8437C54.4836 60.566 53.1017 65.182 50.526 69.1401L48.8496 68.0492C51.216 64.4129 52.4855 60.1723 52.5066 55.834L54.5066 55.8437ZM27.289 6.10429C46.0775 21.37 54.5066 42.547 54.5066 55.8388H52.5066C52.5066 43.2114 44.3994 22.5834 26.0278 7.65652L27.289 6.10429ZM25.2175 4.86884C26.0038 5.14554 26.7252 5.58024 27.3373 6.14617L25.9795 7.61463C25.5678 7.23396 25.0826 6.94157 24.5536 6.75545L25.2175 4.86884ZM22.7649 4.53724C23.5965 4.4793 24.4312 4.59214 25.2175 4.86885L24.5536 6.75545C24.0247 6.56933 23.4633 6.49343 22.9039 6.5324L22.7649 4.53724ZM20.382 5.20576C21.1224 4.82268 21.9333 4.59518 22.7649 4.53724L22.9039 6.5324C22.3446 6.57137 21.7991 6.7244 21.3011 6.98207L20.382 5.20576ZM18.4598 6.76471C18.9875 6.11937 19.6416 5.58883 20.382 5.20576L21.3011 6.98208C20.8031 7.23974 20.3631 7.59661 20.0081 8.0307L18.4598 6.76471ZM17.3138 8.95828C17.5421 8.15656 17.9322 7.41006 18.4598 6.76471L20.0081 8.0307C19.6532 8.46478 19.3909 8.96691 19.2373 9.50617L17.3138 8.95828ZM17.1319 11.4265C17.0235 10.6 17.0854 9.76 17.3138 8.95828L19.2373 9.50617C19.0837 10.0454 19.042 10.6104 19.115 11.1664L17.1319 11.4265ZM17.9441 13.7643C17.5168 13.0486 17.2403 12.253 17.1319 11.4265L19.115 11.1664C19.1879 11.7224 19.3738 12.2575 19.6613 12.7389L17.9441 13.7643ZM19.6171 15.5881C18.9409 15.1007 18.3715 14.48 17.9441 13.7643L19.6613 12.7389C19.9488 13.2203 20.3317 13.6378 20.7866 13.9657L19.6171 15.5881ZM39.4749 43.0076C35.33 32.2857 28.4707 22.8246 19.5691 15.5513L20.8346 14.0025C30.0044 21.4951 37.0705 31.2414 41.3404 42.2864L39.4749 43.0076ZM82.3555 39.0461C85.9633 39.0583 89.5071 39.9989 92.6461 41.7773L91.6602 43.5174C88.8199 41.9082 85.6132 41.0571 82.3488 41.0461L82.3555 39.0461ZM82.2593 39.0461H82.3522V41.0461H82.2593V39.0461ZM74.0851 40.3225C76.7114 39.3451 79.5088 38.9113 82.3078 39.0473L82.2107 41.0449C79.6822 40.922 77.1551 41.3139 74.7826 42.1969L74.0851 40.3225ZM67.0293 44.7333C69.0583 42.8005 71.4588 41.2999 74.0851 40.3225L74.7826 42.1969C72.4101 43.0798 70.2417 44.4354 68.4087 46.1814L67.0293 44.7333ZM62.2811 51.5666C63.3848 48.9908 65.0002 46.6661 67.0293 44.7333L68.4087 46.1814C66.5758 47.9274 65.1165 50.0275 64.1194 52.3544L62.2811 51.5666ZM60.6082 59.7178C60.6082 56.9155 61.1774 54.1424 62.2811 51.5666L64.1194 52.3544C63.1224 54.6812 62.6082 57.1863 62.6082 59.7178H60.6082ZM62.2811 67.8689C61.1774 65.2931 60.6082 62.52 60.6082 59.7178H62.6082C62.6082 62.2492 63.1224 64.7543 64.1194 67.0811L62.2811 67.8689ZM67.0293 74.7022C65.0002 72.7694 63.3848 70.4447 62.2811 67.8689L64.1194 67.0811C65.1165 69.408 66.5758 71.5081 68.4087 73.2541L67.0293 74.7022ZM74.0851 79.113C71.4588 78.1357 69.0583 76.635 67.0293 74.7022L68.4087 73.2541C70.2417 75.0001 72.4101 76.3557 74.7826 77.2386L74.0851 79.113ZM82.3078 80.3882C79.5088 80.5242 76.7114 80.0904 74.0851 79.113L74.7826 77.2386C77.1551 78.1216 79.6822 78.5135 82.2107 78.3906L82.3078 80.3882ZM91.4279 78.2455C88.5709 79.6295 85.4423 80.3617 82.268 80.3893L82.2506 78.3894C85.1288 78.3644 87.9655 77.7005 90.5559 76.4456L91.4279 78.2455ZM102.156 69.267C99.516 73.2479 95.7744 76.3741 91.3875 78.264L90.5962 76.4272C94.6264 74.691 98.0638 71.819 100.489 68.1617L102.156 69.267ZM106.252 55.8462C106.219 60.6226 104.795 65.286 102.156 69.267L100.489 68.1617C102.914 64.5045 104.221 60.2203 104.252 55.8322L106.252 55.8462ZM79.0345 6.10463C97.823 21.3703 106.252 42.5474 106.252 55.8392H104.252C104.252 43.2118 96.1449 22.5838 77.7733 7.65686L79.0345 6.10463ZM76.9374 4.98055C77.7054 5.21495 78.4197 5.59834 79.0396 6.10881L77.7682 7.65267C77.3511 7.30916 76.8704 7.05117 76.3536 6.89344L76.9374 4.98055ZM74.5634 4.74265C75.3627 4.6653 76.1693 4.74614 76.9374 4.98055L76.3536 6.89344C75.8367 6.7357 75.2939 6.6813 74.756 6.73335L74.5634 4.74265ZM72.2791 5.43135C72.9879 5.05401 73.7641 4.82 74.5634 4.74265L74.756 6.73335C74.2182 6.7854 73.6959 6.94288 73.2189 7.19679L72.2791 5.43135ZM70.4322 6.94179C70.9427 6.32193 71.5702 5.80868 72.2791 5.43134L73.2189 7.19679C72.7419 7.4507 72.3196 7.79608 71.9761 8.21321L70.4322 6.94179ZM69.3039 9.04403C69.5383 8.27599 69.9217 7.56166 70.4322 6.94179L71.9761 8.21321C71.6326 8.63033 71.3746 9.11102 71.2168 9.62785L69.3039 9.04403ZM69.066 11.418C68.9887 10.6187 69.0695 9.81205 69.3039 9.04403L71.2168 9.62785C71.0591 10.1447 71.0047 10.6875 71.0567 11.2254L69.066 11.418ZM69.7547 13.7023C69.3774 12.9935 69.1434 12.2173 69.066 11.418L71.0567 11.2254C71.1088 11.7632 71.2663 12.2855 71.5202 12.7625L69.7547 13.7023ZM71.2652 15.5492C70.6453 15.0387 70.1321 14.4111 69.7547 13.7023L71.5202 12.7625C71.7741 13.2395 72.1195 13.6618 72.5366 14.0053L71.2652 15.5492ZM91.2203 43.0077C87.074 32.2753 80.197 22.8116 71.27 15.5532L72.5318 14.0014C81.729 21.4795 88.8141 31.2297 93.0859 42.287L91.2203 43.0077Z" fill="#E215A7" mask="url(#path-1-inside-1_110_85)"/>
</g>
<defs>
<filter id="filter0_d_110_85" x="0.955627" y="0.522461" width="113.296" height="91.8906" filterUnits="userSpaceOnUse" color-interpolation-filters="sRGB">
<feFlood flood-opacity="0" result="BackgroundImageFix"/>
<feColorMatrix in="SourceAlpha" type="matrix" values="0 0 0 0 0 0 0 0 0 0 0 0 0 0 0 0 0 0 127 0" result="hardAlpha"/>
<feOffset dy="4"/>
<feGaussianBlur stdDeviation="4.5"/>
<feComposite in2="hardAlpha" operator="out"/>
<feColorMatrix type="matrix" values="0 0 0 0 0 0 0 0 0 0 0 0 0 0 0 0 0 0 0.26 0"/>
<feBlend mode="normal" in2="BackgroundImageFix" result="effect1_dropShadow_110_85"/>
<feBlend mode="normal" in="SourceGraphic" in2="effect1_dropShadow_110_85" result="shape"/>
</filter>
</defs>
</svg>
