<svg width="45" height="45" viewBox="0 0 45 45" fill="none" xmlns="http://www.w3.org/2000/svg">
<g filter="url(#filter0_d_25_289)">
<path fill-rule="evenodd" clip-rule="evenodd" d="M20.0448 5.32673C20.3816 5.59966 20.8758 5.54775 21.1488 5.21108C22.6937 3.30449 24.93 2.21107 27.2845 2.21107C29.7092 2.21107 31.9649 3.30219 33.4732 5.20459C33.6281 5.40009 33.8573 5.50202 34.0887 5.50192C34.2595 5.50192 34.4316 5.44645 34.5759 5.33206C34.9156 5.06279 34.9727 4.56903 34.7033 4.22943C32.8955 1.94912 30.1914 0.641357 27.2845 0.641357C24.4544 0.641357 21.7734 1.94681 19.929 4.22294C19.6562 4.55951 19.708 5.05389 20.0448 5.32673ZM31.4673 7.9105C31.2358 7.91061 31.0066 7.80867 30.8517 7.61318C29.9851 6.52007 28.689 5.89308 27.2959 5.89329C25.9445 5.89329 24.6595 6.52268 23.7704 7.61988C23.4973 7.95655 23.0032 8.00846 22.6664 7.73552C22.3296 7.46258 22.2778 6.9683 22.5507 6.63152C23.7393 5.16469 25.4688 4.32338 27.2959 4.32338C29.1712 4.32338 30.9155 5.16699 32.0818 6.63801C32.3512 6.97761 32.2941 7.47137 31.9544 7.74065C31.8101 7.85504 31.6381 7.9105 31.4673 7.9105ZM25.3106 8.90804C25.8088 8.2931 26.5367 7.94042 27.3076 7.94042C28.097 7.94042 28.8313 8.29551 29.3219 8.91473C29.5913 9.25443 29.5341 9.74818 29.1944 10.0173C29.0502 10.1317 28.8782 10.1872 28.7074 10.1872C28.476 10.1872 28.2467 10.0853 28.0918 9.88988C27.9006 9.64866 27.6148 9.51031 27.3076 9.51031C27.0124 9.51031 26.729 9.65096 26.5302 9.89637C26.2573 10.233 25.763 10.2849 25.4262 10.012C25.0894 9.73908 25.0376 9.24481 25.3106 8.90804ZM26.9701 31.6212C27.8364 31.526 28.7032 31.8023 29.3482 32.3801C29.9935 32.9582 30.3637 33.7864 30.3637 34.6524C30.3637 35.4033 30.0874 36.1251 29.5858 36.6848C29.5335 36.7431 29.5033 36.8304 29.5033 36.9239V38.869C29.5033 39.4615 29.2705 40.0165 28.8477 40.4316C28.4349 40.8371 27.8916 41.0588 27.3143 41.0588C27.3005 41.0588 27.2867 41.0587 27.2729 41.0585C26.0879 41.0367 25.1239 40.0336 25.1239 38.8225V36.9239C25.1239 36.8305 25.0932 36.7426 25.0396 36.6827C24.4641 36.0394 24.188 35.1757 24.2821 34.3131C24.4354 32.9081 25.5659 31.776 26.9701 31.6212ZM27.9336 36.9238C27.9336 36.4418 28.1051 35.9849 28.4167 35.6371C28.66 35.3657 28.7939 35.016 28.794 34.6523C28.794 34.232 28.6143 33.83 28.301 33.5493C27.9833 33.2648 27.572 33.1337 27.1422 33.1816C26.4634 33.2563 25.9169 33.8039 25.8427 34.4833C25.7962 34.9101 25.9265 35.3195 26.2096 35.6361C26.5217 35.985 26.6937 36.4423 26.6937 36.9238V38.8224C26.6937 39.1837 26.9664 39.4826 27.3017 39.4888C27.468 39.4932 27.6282 39.429 27.748 39.3114C27.8677 39.1938 27.9336 39.0368 27.9336 38.8689V36.9238ZM32.1252 44.8204H17.8273C17.3631 44.8204 16.9856 44.4429 16.9856 43.9788V41.804C16.9856 41.3705 16.6342 41.0191 16.2007 41.0191C15.7673 41.0191 15.4158 41.3705 15.4158 41.804V43.9788C15.4158 45.3084 16.4976 46.3902 17.8273 46.3902H32.1253C32.5588 46.3902 32.9102 46.0389 32.9102 45.6053C32.9102 45.1717 32.5587 44.8204 32.1252 44.8204ZM49.2152 20.4599C49.5459 19.4539 50.4936 18.7253 51.6088 18.7253C52.998 18.7253 54.1282 19.8555 54.1283 21.2448C54.1283 22.634 52.9981 23.7643 51.6088 23.7643C50.4936 23.7643 49.5459 23.0357 49.2152 22.0297H43.1659L40.7353 24.5C40.5878 24.6499 40.3862 24.7344 40.1759 24.7344H36.4473V26.8194H36.8001C38.1298 26.8194 39.2116 27.9012 39.2116 29.231V30.262H43.3855C43.819 30.262 44.1704 30.6133 44.1704 31.0469V32.7064H47.0909C47.392 31.652 48.3636 30.8776 49.5133 30.8776C50.9026 30.8776 52.0329 32.0079 52.0329 33.397C52.0329 34.7863 50.9026 35.9166 49.5133 35.9166C48.4331 35.9166 47.5098 35.2332 47.1523 34.2761H43.3854C42.9519 34.2761 42.6005 33.9248 42.6005 33.4912V31.8317H39.2115V35.5459H42.7918C43.2253 35.5459 43.5767 35.8972 43.5767 36.3308V38.3811C43.5767 38.4006 43.5751 38.4196 43.5738 38.4388C44.5813 38.7686 45.3113 39.7171 45.3113 40.8334C45.3113 42.2226 44.1811 43.3529 42.7918 43.3529C41.4025 43.3529 40.2722 42.2226 40.2722 40.8334C40.2722 39.7171 41.0023 38.7686 42.0098 38.4388L42.0093 38.4322C42.0081 38.4153 42.0069 38.3983 42.0069 38.3811V37.1157H39.2115V43.9787C39.2115 45.3084 38.1298 46.3902 36.8 46.3902H35.7793C35.3459 46.3902 34.9944 46.0388 34.9944 45.6053C34.9944 45.1717 35.3459 44.8204 35.7793 44.8204H36.8C37.2641 44.8204 37.6417 44.4429 37.6417 43.9787V29.2309C37.6417 28.7667 37.2642 28.3891 36.8 28.3891H17.8272C17.3631 28.3891 16.9855 28.7667 16.9855 29.2309V38.1673C16.9855 38.6009 16.6341 38.9522 16.2006 38.9522C15.7672 38.9522 15.4157 38.6009 15.4157 38.1673V37.1157H12.6676V38.3811C12.6676 38.3982 12.6664 38.4151 12.6652 38.4319L12.6647 38.4388C13.6722 38.7686 14.4023 39.7171 14.4023 40.8334C14.4023 42.2226 13.272 43.3529 11.8827 43.3529C10.4934 43.3529 9.36316 42.2226 9.36316 40.8334C9.36316 39.7171 10.0932 38.7686 11.1007 38.4388L11.1003 38.4323C11.099 38.4154 11.0978 38.3984 11.0978 38.3811V36.3308C11.0978 35.8972 11.4492 35.5459 11.8827 35.5459H15.4157V31.8317H12.074V33.4912C12.074 33.9248 11.7226 34.2761 11.2891 34.2761H7.52218C7.16469 35.2332 6.24132 35.9166 5.16119 35.9166C3.7719 35.9166 2.64164 34.7863 2.64164 33.397C2.64164 32.0079 3.7719 30.8776 5.16119 30.8776C6.31092 30.8776 7.28253 31.652 7.58362 32.7064H10.5042V31.0469C10.5042 30.6133 10.8556 30.262 11.2891 30.262H15.4158V29.231C15.4158 27.9012 16.4975 26.8194 17.8273 26.8194H18.1801V24.7344H14.4989C14.2885 24.7344 14.0869 24.65 13.9394 24.5L11.5088 22.0297H5.45956C5.12885 23.0357 4.1811 23.7643 3.06591 23.7643C1.67662 23.7643 0.546356 22.634 0.546356 21.2448C0.546356 19.8555 1.67662 18.7253 3.06591 18.7253C4.1811 18.7253 5.12885 19.4539 5.45956 20.4599H11.8375C12.0478 20.4599 12.2494 20.5443 12.397 20.6943L14.8276 23.1646H18.18V21.1829C18.18 21.1601 18.1803 21.1376 18.1807 21.115C18.181 21.1024 18.1812 21.0898 18.1813 21.0772H15.8402C15.4067 21.0772 15.0553 20.7258 15.0553 20.2922V15.9348C14.0493 15.6041 13.3207 14.6563 13.3207 13.5411C13.3207 12.1518 14.4509 11.0216 15.8402 11.0216C17.2295 11.0216 18.3598 12.1518 18.3598 13.5411C18.3598 14.6563 17.6311 15.6041 16.6251 15.9348V19.5073H18.3345C19.1237 15.2685 22.8495 12.0492 27.3136 12.0492C31.7778 12.0492 35.5036 15.2685 36.2928 19.5073H38.0495V15.9348C37.0435 15.6041 36.3148 14.6563 36.3148 13.5411C36.3148 12.1518 37.4451 11.0216 38.8344 11.0216C40.2237 11.0216 41.3539 12.1518 41.3539 13.5411C41.3539 14.6563 40.6253 15.6041 39.6193 15.9348V20.2922C39.6193 20.7258 39.2679 21.0772 38.8344 21.0772H36.446C36.4461 21.0897 36.4463 21.1023 36.4466 21.1149C36.447 21.1375 36.4473 21.1601 36.4473 21.1829V23.1646H39.847L42.2776 20.6943C42.4252 20.5444 42.6268 20.4599 42.8371 20.4599H49.2152ZM38.8344 12.5915C38.3107 12.5915 37.8847 13.0175 37.8847 13.5412C37.8847 14.0648 38.3107 14.4908 38.8344 14.4908C39.3581 14.4908 39.7841 14.0649 39.7841 13.5412C39.7841 13.0175 39.3581 12.5915 38.8344 12.5915ZM14.8905 13.5412C14.8905 14.0649 15.3165 14.4908 15.8402 14.4908C16.3639 14.4908 16.7899 14.0649 16.7899 13.5412C16.7899 13.0175 16.3639 12.5915 15.8402 12.5915C15.3165 12.5915 14.8905 13.0175 14.8905 13.5412ZM2.11617 21.2448C2.11617 21.7685 2.54222 22.1944 3.06591 22.1944C3.58959 22.1944 4.01564 21.7685 4.01564 21.2448C4.01564 20.7211 3.58959 20.2951 3.06591 20.2951C2.54222 20.2951 2.11617 20.7211 2.11617 21.2448ZM4.21145 33.397C4.21145 33.9207 4.6375 34.3468 5.16119 34.3468C5.68488 34.3468 6.11092 33.9207 6.11092 33.397C6.11092 32.8734 5.68488 32.4474 5.16119 32.4474C4.6375 32.4474 4.21145 32.8734 4.21145 33.397ZM11.8826 41.7832C12.4063 41.7832 12.8323 41.3571 12.8323 40.8335C12.8323 40.3098 12.4063 39.8838 11.8826 39.8838C11.3589 39.8838 10.9329 40.3098 10.9329 40.8335C10.9329 41.3571 11.3589 41.7832 11.8826 41.7832ZM32.9615 26.8194H34.8775H34.8776V21.183C34.8776 17.0123 31.4845 13.6192 27.3138 13.6192C23.143 13.6192 19.7499 17.0122 19.7499 21.183V26.8194H21.6659V24.5972C21.6659 24.1636 22.0173 23.8123 22.4508 23.8123C22.8843 23.8123 23.2357 24.1636 23.2357 24.5972V26.8194H31.3918V21.183C31.3918 18.9343 29.5624 17.1049 27.3138 17.1049C25.1315 17.1049 23.3422 18.8106 23.2402 20.9882C23.2199 21.4214 22.8513 21.7549 22.4194 21.7356C21.9863 21.7152 21.6518 21.3478 21.6721 20.9148C21.8133 17.8982 24.2914 15.5351 27.3136 15.5351C30.4279 15.5351 32.9615 18.0687 32.9615 21.183V26.8194ZM43.7416 40.8334C43.7416 40.3097 43.3156 39.8837 42.7919 39.8837C42.2683 39.8837 41.8422 40.3097 41.8422 40.8334C41.8422 41.357 42.2682 41.7831 42.7919 41.7831C43.3156 41.7831 43.7416 41.357 43.7416 40.8334ZM50.4633 33.397C50.4633 32.8734 50.0372 32.4474 49.5135 32.4474C48.9898 32.4474 48.5638 32.8734 48.5638 33.397C48.5638 33.9207 48.9898 34.3468 49.5135 34.3468C50.0372 34.3468 50.4633 33.9207 50.4633 33.397ZM50.6591 21.2448C50.6591 21.7685 51.0851 22.1944 51.6088 22.1944C52.1324 22.1944 52.5585 21.7685 52.5585 21.2448C52.5585 20.7211 52.1325 20.2951 51.6088 20.2951C51.0851 20.2951 50.6591 20.7211 50.6591 21.2448Z" fill="#E9EEF4"/>
</g>
<defs>
<filter id="filter0_d_25_289" x="0.546356" y="0.641357" width="67.582" height="59.7488" filterUnits="userSpaceOnUse" color-interpolation-filters="sRGB">
<feFlood flood-opacity="0" result="BackgroundImageFix"/>
<feColorMatrix in="SourceAlpha" type="matrix" values="0 0 0 0 0 0 0 0 0 0 0 0 0 0 0 0 0 0 127 0" result="hardAlpha"/>
<feOffset dx="7" dy="7"/>
<feGaussianBlur stdDeviation="3.5"/>
<feComposite in2="hardAlpha" operator="out"/>
<feColorMatrix type="matrix" values="0 0 0 0 0 0 0 0 0 0 0 0 0 0 0 0 0 0 0.25 0"/>
<feBlend mode="normal" in2="BackgroundImageFix" result="effect1_dropShadow_25_289"/>
<feBlend mode="normal" in="SourceGraphic" in2="effect1_dropShadow_25_289" result="shape"/>
</filter>
</defs>
</svg>
