<svg width="41" height="46" viewBox="0 0 41 46" fill="none" xmlns="http://www.w3.org/2000/svg">
<path fill-rule="evenodd" clip-rule="evenodd" d="M39.8913 13.1601L39.9247 13.2177C40.0617 13.4545 40.1167 13.7161 40.0988 13.9699C40.1008 14.0076 40.1019 14.0456 40.1019 14.0838V42.6971C40.1019 44.4071 38.7107 45.7983 37.0007 45.7983H4.01487C2.30486 45.7983 0.913635 44.4071 0.913635 42.6971V14.1884C0.913635 13.9157 0.962854 13.6544 1.05241 13.4126C1.08159 13.3069 1.1229 13.2028 1.18021 13.1033L7.54264 2.06546C7.99343 1.28376 8.83367 0.79834 9.73569 0.79834H31.281C32.1816 0.79834 33.0212 1.28262 33.4721 2.06221L39.7325 12.8856C39.7919 12.9727 39.8452 13.0644 39.8913 13.1601ZM31.2197 3.43604H21.8718V11.9503H36.1444L31.2197 3.43604ZM19.2341 3.43604H9.79713L4.88929 11.9503H19.2341V3.43604ZM37.0007 43.1607C37.2563 43.1607 37.4642 42.9528 37.4642 42.6972V14.588H3.55133V42.6972C3.55133 42.9528 3.75928 43.1607 4.01487 43.1607H37.0007ZM24.6294 24.5312C25.1445 24.0162 25.9796 24.0162 26.4946 24.5312C27.0096 25.0462 27.0096 25.8813 26.4946 26.3963L19.6732 33.2177C19.4157 33.4752 19.0781 33.6041 18.7406 33.6041C18.4032 33.6041 18.0656 33.4752 17.8081 33.2177L14.611 30.0208C14.096 29.5057 14.096 28.6706 14.611 28.1556C15.126 27.6407 15.9612 27.6407 16.4761 28.1556L18.7406 30.4201L24.6294 24.5312Z" fill="#E9EEF4"/>
</svg>
