<svg width="16" height="13" viewBox="0 0 16 13" fill="none" xmlns="http://www.w3.org/2000/svg">
<path d="M13.8844 3.0502C13.8941 3.18361 13.8941 3.31702 13.8941 3.45043C13.902 4.60135 13.6811 5.74238 13.2443 6.80722C12.8075 7.87206 12.1635 8.8395 11.3497 9.65335C10.5358 10.4672 9.56838 11.1112 8.50353 11.548C7.43869 11.9848 6.29767 12.2057 5.14675 12.1978C3.47212 12.2011 1.8322 11.7205 0.424286 10.8138C0.670857 10.8411 0.918816 10.854 1.16689 10.8524C2.55081 10.8561 3.89562 10.3934 4.9844 9.53916C4.34297 9.52789 3.72108 9.31659 3.20555 8.93477C2.69002 8.55295 2.3066 8.01967 2.10881 7.40939C2.30075 7.43999 2.49472 7.45611 2.68907 7.45761C2.96028 7.45644 3.23027 7.42134 3.49276 7.35313C2.79746 7.21105 2.17271 6.83284 1.72447 6.28265C1.27623 5.73246 1.0321 5.04416 1.03348 4.33449V4.29752C1.45966 4.53551 1.93609 4.66935 2.42386 4.68811C1.77086 4.25297 1.30859 3.58497 1.13145 2.82053C0.954302 2.05608 1.07564 1.25285 1.47069 0.574844C2.24319 1.52491 3.20672 2.30204 4.29883 2.85584C5.39093 3.40965 6.58723 3.72777 7.81016 3.78959C7.76104 3.5581 7.73573 3.3222 7.73462 3.08556C7.73586 2.46905 7.92221 1.86713 8.26952 1.35775C8.61682 0.848382 9.10908 0.455036 9.68253 0.228671C10.256 0.00230628 10.8842 -0.046646 11.4858 0.0881554C12.0874 0.222957 12.6346 0.5353 13.0566 0.984724C13.7452 0.852077 14.4054 0.600805 15.008 0.242118C14.7786 0.952548 14.298 1.55492 13.6562 1.93629C14.2663 1.86455 14.8622 1.70202 15.4243 1.45408C15.0046 2.06905 14.4839 2.60869 13.8844 3.0502Z" />
</svg>
