<svg width="61" height="61" viewBox="0 0 61 61" fill="none" xmlns="http://www.w3.org/2000/svg">
<g filter="url(#filter0_d_26_294)">
<path fill-rule="evenodd" clip-rule="evenodd" d="M42.4001 19.7032C41.5215 19.7043 40.6702 20.0083 39.9896 20.5639C39.309 21.1195 38.8408 21.8927 38.6638 22.7532H31.725V19.0841C31.7261 18.8399 31.6634 18.5997 31.543 18.3873C31.4226 18.1749 31.2488 17.9977 31.0388 17.8732L30.4219 17.5133L34.7186 13.2166C35.5068 13.7376 36.4604 13.9473 37.3944 13.8052C38.3285 13.6631 39.1765 13.1792 39.7741 12.4474C40.3716 11.7155 40.6762 10.7879 40.6286 9.84427C40.5811 8.90065 40.1849 8.0083 39.5168 7.34021C38.8487 6.67213 37.9564 6.27591 37.0127 6.22838C36.0691 6.18084 35.1415 6.48538 34.4096 7.08294C33.6778 7.68051 33.1939 8.52853 33.0518 9.46259C32.9097 10.3967 33.1194 11.3502 33.6404 12.1384L29.0562 16.7203L24.1 13.8319V8.18938C25.0257 8.00042 25.8483 7.47447 26.4082 6.71349C26.9682 5.95251 27.2256 5.01071 27.1307 4.07069C27.0357 3.13067 26.5951 2.2594 25.8943 1.62578C25.1934 0.992171 24.2823 0.641357 23.3375 0.641357C22.3927 0.641357 21.4815 0.992171 20.7807 1.62578C20.0798 2.2594 19.6392 3.13067 19.5442 4.07069C19.4493 5.01071 19.7067 5.95251 20.2667 6.71349C20.8267 7.47447 21.6492 8.00042 22.575 8.18938V13.8319L17.6187 16.7172L13.0368 12.1354C13.5578 11.3472 13.7675 10.3936 13.6254 9.45954C13.4833 8.52548 12.9994 7.67746 12.2676 7.07989C11.5357 6.48233 10.6081 6.17779 9.66446 6.22533C8.72084 6.27286 7.82849 6.66908 7.16041 7.33716C6.49232 8.00525 6.0961 8.8976 6.04857 9.84122C6.00104 10.7848 6.30557 11.7125 6.90314 12.4443C7.5007 13.1762 8.34872 13.6601 9.28278 13.8022C10.2168 13.9443 11.1704 13.7345 11.9586 13.2135L16.2553 17.5103L15.6407 17.8686C15.4293 17.993 15.2542 18.1708 15.1329 18.3841C15.0117 18.5973 14.9486 18.8387 14.9499 19.0841V22.7532H8.0111C7.82214 21.8275 7.29618 21.0049 6.5352 20.445C5.77422 19.885 4.83243 19.6276 3.89241 19.7225C2.95239 19.8175 2.08111 20.2581 1.4475 20.9589C0.813887 21.6598 0.463074 22.5709 0.463074 23.5157C0.463074 24.4605 0.813887 25.3717 1.4475 26.0725C2.08111 26.7734 2.95239 27.214 3.89241 27.309C4.83243 27.4039 5.77422 27.1465 6.5352 26.5865C7.29618 26.0265 7.82214 25.204 8.0111 24.2783H14.9499V27.9474C14.9492 28.1919 15.0125 28.4324 15.1335 28.6448C15.2546 28.8573 15.4292 29.0343 15.64 29.1583L16.2568 29.5182L11.9601 33.8149C11.1719 33.2939 10.2184 33.0841 9.28431 33.2263C8.35024 33.3684 7.50222 33.8523 6.90466 34.5841C6.3071 35.3159 6.00256 36.2436 6.05009 37.1872C6.09763 38.1308 6.49385 39.0232 7.16193 39.6913C7.83001 40.3594 8.72237 40.7556 9.66598 40.8031C10.6096 40.8506 11.5373 40.5461 12.2691 39.9485C13.0009 39.351 13.4848 38.503 13.6269 37.5689C13.7691 36.6348 13.5593 35.6813 13.0383 34.8931L17.6187 30.3112L22.575 33.1996V38.8421C21.6492 39.0311 20.8267 39.557 20.2667 40.318C19.7067 41.079 19.4493 42.0208 19.5442 42.9608C19.6392 43.9008 20.0798 44.7721 20.7807 45.4057C21.4815 46.0393 22.3927 46.3901 23.3375 46.3901C24.2823 46.3901 25.1934 46.0393 25.8943 45.4057C26.5951 44.7721 27.0357 43.9008 27.1307 42.9608C27.2256 42.0208 26.9682 41.079 26.4082 40.318C25.8483 39.557 25.0257 39.0311 24.1 38.8421V33.1996L29.0562 30.3142L33.6381 34.8961C33.1171 35.6843 32.9074 36.6379 33.0495 37.5719C33.1916 38.506 33.6755 39.354 34.4074 39.9516C35.1392 40.5492 36.0668 40.8537 37.0105 40.8062C37.9541 40.7586 38.8464 40.3624 39.5145 39.6943C40.1826 39.0262 40.5788 38.1339 40.6263 37.1903C40.6739 36.2467 40.3693 35.319 39.7718 34.5872C39.1742 33.8553 38.3262 33.3714 37.3921 33.2293C36.4581 33.0872 35.5045 33.297 34.7163 33.818L30.4196 29.5212L31.0342 29.1629C31.2456 29.0385 31.4207 28.8607 31.542 28.6474C31.6632 28.4341 31.7263 28.1928 31.725 27.9474V24.2783H38.6638C38.8081 24.985 39.1499 25.6364 39.6496 26.1566C40.1493 26.6769 40.7863 27.0447 41.4867 27.2174C42.187 27.3901 42.922 27.3605 43.6063 27.1322C44.2905 26.9038 44.896 26.486 45.3522 25.9273C45.8085 25.3686 46.0969 24.6919 46.184 23.9758C46.271 23.2597 46.1531 22.5336 45.844 21.8819C45.5349 21.2301 45.0472 20.6795 44.4376 20.2938C43.828 19.9082 43.1214 19.7034 42.4001 19.7032ZM35.1998 8.41814C35.4122 8.2057 35.6644 8.03719 35.9419 7.92222C36.2195 7.80725 36.517 7.74808 36.8174 7.74808C37.1178 7.74808 37.4153 7.80725 37.6929 7.92222C37.9704 8.03719 38.2226 8.2057 38.4351 8.41814C38.6475 8.63057 38.816 8.88276 38.931 9.16032C39.0459 9.43788 39.1051 9.73536 39.1051 10.0358C39.1051 10.3362 39.0459 10.6337 38.931 10.9113C38.816 11.1888 38.6475 11.441 38.4351 11.6534C37.9993 12.0693 37.4201 12.3014 36.8178 12.3014C36.2155 12.3014 35.6363 12.0693 35.2005 11.6534C34.7717 11.2245 34.5308 10.6427 34.5308 10.0362C34.5308 9.4296 34.7717 8.84787 35.2005 8.4189L35.1998 8.41814ZM8.23985 11.6534C7.91987 11.3336 7.70193 10.926 7.61361 10.4822C7.52529 10.0385 7.57055 9.57848 7.74367 9.16045C7.91679 8.74242 8.20998 8.38512 8.58618 8.13373C8.96237 7.88235 9.40467 7.74817 9.85713 7.74817C10.3096 7.74817 10.7519 7.88235 11.1281 8.13373C11.5043 8.38512 11.7975 8.74242 11.9706 9.16045C12.1437 9.57848 12.189 10.0385 12.1006 10.4822C12.0123 10.926 11.7944 11.3336 11.4744 11.6534C11.0387 12.0693 10.4595 12.3014 9.85713 12.3014C9.25478 12.3014 8.67559 12.0693 8.23985 11.6534ZM4.27482 25.8033C3.8224 25.8033 3.38013 25.6691 3.00395 25.4177C2.62777 25.1664 2.33457 24.8091 2.16143 24.3911C1.9883 23.9732 1.943 23.5132 2.03126 23.0695C2.11952 22.6257 2.33739 22.2181 2.6573 21.8982C2.97722 21.5783 3.38482 21.3604 3.82855 21.2722C4.27229 21.1839 4.73223 21.2292 5.15022 21.4024C5.56821 21.5755 5.92547 21.8687 6.17682 22.2449C6.42818 22.621 6.56234 23.0633 6.56234 23.5157C6.56234 24.1224 6.32133 24.7043 5.89234 25.1333C5.46335 25.5623 4.88151 25.8033 4.27482 25.8033ZM11.4752 38.6134C11.0394 39.0292 10.4602 39.2613 9.85789 39.2613C9.25554 39.2613 8.67635 39.0292 8.24061 38.6134C7.92063 38.2935 7.7027 37.8859 7.61438 37.4421C7.52606 36.9984 7.57132 36.5384 7.74443 36.1204C7.91755 35.7023 8.21075 35.345 8.58694 35.0936C8.96314 34.8423 9.40543 34.7081 9.85789 34.7081C10.3103 34.7081 10.7526 34.8423 11.1288 35.0936C11.505 35.345 11.7982 35.7023 11.9713 36.1204C12.1445 36.5384 12.1897 36.9984 12.1014 37.4421C12.0131 37.8859 11.7951 38.2935 11.4752 38.6134ZM38.4351 35.378C38.8639 35.807 39.1048 36.3888 39.1048 36.9953C39.1048 37.6019 38.8639 38.1836 38.4351 38.6126C37.9993 39.0285 37.4201 39.2605 36.8178 39.2605C36.2155 39.2605 35.6363 39.0285 35.2005 38.6126C34.982 38.4016 34.8078 38.1492 34.6879 37.8701C34.568 37.591 34.5049 37.2908 34.5023 36.9871C34.4996 36.6833 34.5575 36.3821 34.6725 36.101C34.7875 35.8199 34.9574 35.5645 35.1722 35.3497C35.3869 35.1349 35.6424 34.9651 35.9235 34.85C36.2046 34.735 36.5058 34.6771 36.8096 34.6798C37.1133 34.6824 37.4135 34.7455 37.6926 34.8654C37.9716 34.9853 38.224 35.1596 38.4351 35.378ZM23.3375 22.6244L17.0514 18.8118L23.3375 15.1549L29.6289 18.8187L23.3375 22.6244ZM16.4749 20.2499L22.575 23.9458V31.4328L16.4749 27.8803V20.2499ZM24.1 23.9458L30.2 20.256V27.8811L24.1 31.4336V23.9458ZM21.0499 4.45311C21.0499 4.00068 21.1841 3.55841 21.4355 3.18223C21.6868 2.80605 22.0441 2.51285 22.4621 2.33972C22.8801 2.16658 23.34 2.12128 23.7837 2.20954C24.2275 2.29781 24.6351 2.51567 24.955 2.83559C25.2749 3.1555 25.4928 3.5631 25.581 4.00683C25.6693 4.45057 25.624 4.91051 25.4508 5.3285C25.2777 5.74649 24.9845 6.10375 24.6083 6.35511C24.2322 6.60646 23.7899 6.74062 23.3375 6.74062C22.7308 6.74062 22.1489 6.49962 21.7199 6.07063C21.2909 5.64163 21.0499 5.05979 21.0499 4.45311ZM25.625 42.5784C25.625 43.0308 25.4908 43.4731 25.2395 43.8493C24.9881 44.2254 24.6308 44.5186 24.2129 44.6918C23.7949 44.8649 23.3349 44.9102 22.8912 44.8219C22.4475 44.7337 22.0399 44.5158 21.7199 44.1959C21.4 43.876 21.1822 43.4684 21.0939 43.0247C21.0056 42.5809 21.0509 42.121 21.2241 41.703C21.3972 41.285 21.6904 40.9277 22.0666 40.6764C22.4428 40.425 22.885 40.2909 23.3375 40.2909C23.9441 40.2909 24.526 40.5319 24.955 40.9609C25.384 41.3899 25.625 41.9717 25.625 42.5784ZM42.4001 25.8033C41.9477 25.8033 41.5054 25.6691 41.1292 25.4177C40.753 25.1664 40.4598 24.8091 40.2867 24.3911C40.1136 23.9732 40.0683 23.5132 40.1565 23.0695C40.2448 22.6257 40.4627 22.2181 40.7826 21.8982C41.1025 21.5783 41.5101 21.3604 41.9538 21.2722C42.3976 21.1839 42.8575 21.2292 43.2755 21.4024C43.6935 21.5755 44.0507 21.8687 44.3021 22.2449C44.5535 22.621 44.6876 23.0633 44.6876 23.5157C44.6876 24.1224 44.4466 24.7043 44.0176 25.1333C43.5886 25.5623 43.0068 25.8033 42.4001 25.8033ZM23.676 17.7611C23.624 17.6755 23.5556 17.601 23.4748 17.5419C23.394 17.4828 23.3024 17.4401 23.2051 17.4164C23.1078 17.3927 23.0068 17.3883 22.9078 17.4037C22.8089 17.419 22.7139 17.4536 22.6283 17.5057L21.3397 18.2895C21.2511 18.34 21.1736 18.4078 21.1116 18.4887C21.0497 18.5697 21.0047 18.6623 20.9791 18.761C20.9536 18.8597 20.9481 18.9625 20.963 19.0634C20.9779 19.1643 21.0129 19.2611 21.0659 19.3482C21.1189 19.4353 21.1888 19.5109 21.2715 19.5705C21.3542 19.6301 21.448 19.6725 21.5474 19.6953C21.6468 19.718 21.7498 19.7205 21.8502 19.7028C21.9506 19.685 22.0464 19.6473 22.1319 19.5919L23.4206 18.8088C23.5061 18.7568 23.5806 18.6884 23.6398 18.6076C23.6989 18.5268 23.7416 18.4351 23.7653 18.3378C23.789 18.2406 23.7933 18.1396 23.778 18.0406C23.7627 17.9416 23.728 17.8467 23.676 17.7611ZM18.2233 23.7391C18.3662 23.5961 18.5602 23.5157 18.7624 23.5157C18.9647 23.5157 19.1586 23.5961 19.3016 23.7391C19.4446 23.8821 19.5249 24.076 19.5249 24.2783V26.5658C19.5249 26.768 19.4446 26.9619 19.3016 27.1049C19.1586 27.2479 18.9647 27.3283 18.7624 27.3283C18.5602 27.3283 18.3662 27.2479 18.2233 27.1049C18.0803 26.9619 17.9999 26.768 17.9999 26.5658V24.2783C17.9999 24.076 18.0803 23.8821 18.2233 23.7391Z" fill="#E9EEF4"/>
</g>
<defs>
<filter id="filter0_d_26_294" x="0.463074" y="0.641357" width="59.7488" height="59.7488" filterUnits="userSpaceOnUse" color-interpolation-filters="sRGB">
<feFlood flood-opacity="0" result="BackgroundImageFix"/>
<feColorMatrix in="SourceAlpha" type="matrix" values="0 0 0 0 0 0 0 0 0 0 0 0 0 0 0 0 0 0 127 0" result="hardAlpha"/>
<feOffset dx="7" dy="7"/>
<feGaussianBlur stdDeviation="3.5"/>
<feComposite in2="hardAlpha" operator="out"/>
<feColorMatrix type="matrix" values="0 0 0 0 0 0 0 0 0 0 0 0 0 0 0 0 0 0 0.25 0"/>
<feBlend mode="normal" in2="BackgroundImageFix" result="effect1_dropShadow_26_294"/>
<feBlend mode="normal" in="SourceGraphic" in2="effect1_dropShadow_26_294" result="shape"/>
</filter>
</defs>
</svg>
