<svg width="81" height="81" viewBox="0 0 81 81" fill="none" xmlns="http://www.w3.org/2000/svg">
<path fill-rule="evenodd" clip-rule="evenodd" d="M71.0864 0.485596H9.10082C4.11832 0.485596 0.0642395 4.53968 0.0642395 9.52217V9.52869V71.5094C0.0642395 76.4919 4.11832 80.546 9.10082 80.546H71.0864C76.0689 80.546 80.123 76.4919 80.123 71.5094V9.52869V9.52217C80.123 4.53968 76.0689 0.485596 71.0864 0.485596ZM76.7872 71.5094C76.7872 74.653 74.23 77.2102 71.0864 77.2102H9.10082C5.95723 77.2102 3.40002 74.653 3.40002 71.5094V16.2516H76.7872V71.5094ZM76.7872 12.9158H3.40002V9.52869C3.40002 6.38266 5.95886 3.82301 9.10489 3.82301H71.0823C74.2283 3.82301 76.7872 6.38266 76.7872 9.52869V12.9158ZM12.5636 6.70198H12.5465C11.6254 6.70198 10.8876 7.44879 10.8876 8.36987C10.8876 9.29096 11.6425 10.0378 12.5636 10.0378C13.4847 10.0378 14.2315 9.29096 14.2315 8.36987C14.2315 7.44879 13.4847 6.70198 12.5636 6.70198ZM19.938 6.70198H19.9551C20.8762 6.70198 21.623 7.44879 21.623 8.36987C21.623 9.29096 20.8762 10.0378 19.9551 10.0378C19.0341 10.0378 18.2791 9.29096 18.2791 8.36987C18.2791 7.44879 19.017 6.70198 19.938 6.70198ZM27.3474 6.70198H27.3295C26.4084 6.70198 25.6706 7.44879 25.6706 8.36987C25.6706 9.29096 26.4263 10.0378 27.3474 10.0378C28.2685 10.0378 29.0153 9.29096 29.0153 8.36987C29.0153 7.44879 28.2685 6.70198 27.3474 6.70198ZM40.4014 6.70198H67.6407C68.5618 6.70198 69.3086 7.44879 69.3086 8.36987C69.3086 9.29096 68.5618 10.0378 67.6407 10.0378H40.4014C39.4804 10.0378 38.7336 9.29096 38.7336 8.36987C38.7336 7.44879 39.4804 6.70198 40.4014 6.70198ZM16.5615 52.0411L21.4422 52.7936C21.7517 53.7725 22.1475 54.7278 22.6263 55.6513L19.7084 59.6158C19.2197 60.2795 19.2889 61.2006 19.872 61.7837L25.041 66.9527C25.6242 67.535 26.5436 67.6067 27.2082 67.1172L31.1613 64.2115C32.097 64.6919 33.0572 65.0926 34.0312 65.4086L34.7837 70.2649C34.9099 71.0777 35.6095 71.6771 36.432 71.6771H43.7551C44.5777 71.6771 45.2772 71.0777 45.4035 70.2649L46.156 65.4086C47.13 65.0926 48.0902 64.6919 49.0259 64.2115L52.979 67.1172C53.6436 67.6067 54.5647 67.535 55.1461 66.9527L60.3151 61.7837C60.8982 61.2006 60.9675 60.2795 60.4788 59.6158L57.5608 55.6505C58.0397 54.727 58.4355 53.7717 58.745 52.7936L63.6257 52.0411C64.4393 51.9156 65.0395 51.2161 65.0395 50.3927V43.0696C65.0395 42.2471 64.4393 41.5467 63.6265 41.4213L58.7515 40.668C58.4347 39.6883 58.0405 38.7346 57.5722 37.8168L60.4813 33.8425C60.9667 33.1796 60.8974 32.2617 60.3176 31.6794L55.1486 26.4934C54.5663 25.9102 53.6444 25.8378 52.9782 26.328L49.0129 29.246C48.1008 28.7737 47.1455 28.3754 46.1568 28.0554L45.4035 23.1975C45.2772 22.3847 44.5777 21.7853 43.7551 21.7853H36.432C35.6095 21.7853 34.9099 22.3847 34.7837 23.1975L34.0304 28.0554C33.0417 28.3754 32.0864 28.7737 31.1743 29.246L27.209 26.328C26.5452 25.8369 25.6209 25.9094 25.0386 26.4934L19.8696 31.6794C19.2898 32.2617 19.2205 33.1796 19.7059 33.8425L22.6149 37.8159C22.1467 38.7338 21.7525 39.6874 21.4349 40.668L16.5607 41.4213C15.7479 41.5467 15.1477 42.2471 15.1477 43.0696V50.3927C15.1477 51.2161 15.7479 51.9156 16.5615 52.0411ZM18.4835 44.4997L22.9928 43.8026C23.6492 43.7008 24.1835 43.2195 24.3512 42.5761C24.7234 41.155 25.287 39.7933 26.0265 38.5277C26.362 37.9536 26.3245 37.2361 25.932 36.7002L23.2404 33.0232L26.3881 29.865L30.0594 32.5671C30.6018 32.9662 31.329 33.0012 31.9032 32.6559C33.1468 31.9132 34.5044 31.3464 35.9385 30.9709C36.5811 30.8032 37.0632 30.2697 37.165 29.6133L37.8613 25.1211H42.3259L43.0222 29.6133C43.124 30.2697 43.6061 30.8032 44.2487 30.9709C45.6828 31.3464 47.0404 31.9132 48.284 32.6559C48.8606 33.0012 49.587 32.9662 50.1278 32.5671L53.7991 29.865L56.9468 33.0232L54.2552 36.7002C53.8626 37.2361 53.8252 37.9536 54.1599 38.5269C54.901 39.7949 55.4646 41.1574 55.8359 42.5761C56.0037 43.2195 56.5379 43.7008 57.1944 43.8026L61.7037 44.4997V48.9618L57.1772 49.6598C56.5119 49.7624 55.9736 50.2543 55.8123 50.9074C55.4678 52.3017 54.9083 53.652 54.1501 54.9216C53.8064 55.4982 53.8415 56.2246 54.2397 56.7654L56.9427 60.4383L53.8008 63.5811L50.1449 60.8944C49.6107 60.501 48.8899 60.4652 48.3158 60.7975C47.0078 61.5622 45.6405 62.1315 44.2527 62.4898C43.6085 62.6568 43.124 63.191 43.0222 63.849L42.3259 68.3413H37.8613L37.165 63.849C37.0632 63.191 36.5786 62.6568 35.9345 62.4898C34.5467 62.1315 33.1793 61.5622 31.8714 60.7975C31.2973 60.462 30.5765 60.4994 30.0423 60.8944L26.3864 63.5811L23.2445 60.4383L25.9475 56.7654C26.3457 56.2246 26.3807 55.4974 26.0362 54.9216C25.2788 53.6544 24.7202 52.3041 24.3749 50.9074C24.2136 50.2543 23.6753 49.7624 23.0099 49.6598L18.4835 48.9618V44.4997ZM34.7568 52.1617H35.2015V41.3009H34.7568C33.8357 41.3009 33.0889 40.5541 33.0889 39.633C33.0889 38.7119 33.8357 37.9651 34.7568 37.9651H35.5598V36.3477C35.5598 35.4266 36.3066 34.6798 37.2277 34.6798C38.1488 34.6798 38.8956 35.4266 38.8956 36.3477V37.9651H40.0065V36.3477C40.0065 35.4266 40.7533 34.6798 41.6743 34.6798C42.5954 34.6798 43.3422 35.4266 43.3422 36.3477V38.2002C45.5032 38.8378 47.095 40.8174 47.095 43.1822C47.095 44.5562 46.5505 45.7985 45.679 46.7313C46.5505 47.6641 47.095 48.9065 47.095 50.2805C47.095 52.6452 45.5032 54.6248 43.3422 55.2625V57.1149C43.3422 58.036 42.5954 58.7828 41.6743 58.7828C40.7533 58.7828 40.0065 58.036 40.0065 57.1149V55.4975H38.8956V57.1149C38.8956 58.036 38.1488 58.7828 37.2277 58.7828C36.3066 58.7828 35.5598 58.036 35.5598 57.1149V55.4975H34.7568C33.8357 55.4975 33.0889 54.7507 33.0889 53.8296C33.0889 52.9085 33.8357 52.1617 34.7568 52.1617ZM41.8779 41.3009H38.5373V45.0634H41.8779C42.9155 45.0634 43.7592 44.2197 43.7592 43.1822C43.7592 42.1446 42.9155 41.3009 41.8779 41.3009ZM41.8779 48.3992H38.5373V52.1617H41.8779C42.9155 52.1617 43.7592 51.318 43.7592 50.2805C43.7592 49.2429 42.9155 48.3992 41.8779 48.3992Z" fill="#E9EEF4"/>
</svg>
