<svg width="41" height="45" viewBox="0 0 41 45" fill="none" xmlns="http://www.w3.org/2000/svg">
<path d="M37.5072 18.7494H36.0072V14.9995C36.0052 13.2099 35.2934 11.4942 34.028 10.2288C32.7625 8.96341 31.0469 8.25162 29.2573 8.24961H28.6565C27.8671 5.84938 26.3401 3.75959 24.2933 2.2781C22.2465 0.796608 19.7842 -0.000976563 17.2575 -0.000976562C14.7307 -0.000976563 12.2685 0.796608 10.2217 2.2781C8.17482 3.75959 6.64786 5.84938 5.85841 8.24961H3.75769C2.76349 8.25073 1.81032 8.64617 1.10732 9.34918C0.404308 10.0522 0.00886806 11.0053 0.00775146 11.9995V36.7492C0.0102327 38.9364 0.880209 41.0333 2.42682 42.58C3.97343 44.1266 6.07038 44.9965 8.25762 44.999H27.7573C29.9445 44.9965 32.0415 44.1266 33.5881 42.58C35.1347 41.0333 36.0047 38.9364 36.0072 36.7492V33.7492C37.2002 33.7479 38.344 33.2733 39.1876 32.4297C40.0312 31.5861 40.5058 30.4423 40.5071 29.2493V21.7494C40.5062 20.954 40.1899 20.1915 39.6275 19.6291C39.065 19.0667 38.3025 18.7503 37.5072 18.7494ZM37.5072 20.2494C37.905 20.2494 38.2865 20.4075 38.5678 20.6888C38.8491 20.9701 39.0071 21.3516 39.0071 21.7494C39.0071 22.1472 38.8491 22.5287 38.5678 22.81C38.2865 23.0913 37.905 23.2494 37.5072 23.2494H36.0072V20.2494H37.5072ZM29.2573 9.74959C30.6492 9.75115 31.9836 10.3048 32.9678 11.289C33.952 12.2732 34.5056 13.6076 34.5072 14.9995V17.7615C33.8697 16.8535 33.0558 16.0832 32.1141 15.4966C31.1724 14.91 30.1222 14.519 29.0262 14.3471C29.3279 12.8301 29.3343 11.269 29.0449 9.74959H29.2573ZM17.2575 1.49972C18.827 1.50111 20.3763 1.85405 21.7916 2.53262C23.2069 3.21119 24.4522 4.19815 25.4361 5.42103C26.42 6.6439 27.1175 8.07163 27.4774 9.59937C27.8373 11.1271 27.8504 12.7161 27.5157 14.2495H25.9714C26.3142 12.9198 26.3482 11.5293 26.0707 10.1844C25.7932 8.83955 25.2117 7.57602 24.3706 6.49057C23.5295 5.40512 22.4512 4.52655 21.2181 3.92213C19.9851 3.3177 18.6301 3.00346 17.257 3.00346C15.8838 3.00346 14.5288 3.3177 13.2958 3.92213C12.0628 4.52655 10.9844 5.40512 10.1433 6.49057C9.30222 7.57602 8.72067 8.83955 8.4432 10.1844C8.16574 11.5293 8.19971 12.9198 8.54252 14.2495H7.00064C6.66494 12.7161 6.67722 11.1269 7.03658 9.59878C7.39594 8.0707 8.09323 6.64259 9.07719 5.41948C10.0611 4.19637 11.3067 3.20936 12.7224 2.53102C14.138 1.85269 15.6877 1.50028 17.2575 1.49972ZM20.9802 14.2495C21.0396 13.8409 21.0014 13.424 20.8688 13.0329C20.7361 12.6418 20.5128 12.2877 20.217 11.9995C20.5392 11.685 20.7749 11.2928 20.9016 10.8607C21.0282 10.4286 21.0414 9.97119 20.94 9.53251C20.8385 9.09382 20.6259 8.68864 20.3224 8.35599C20.019 8.02334 19.635 7.77442 19.2074 7.63321V7.04963C19.2074 6.85072 19.1284 6.65996 18.9878 6.51931C18.8471 6.37866 18.6564 6.29964 18.4575 6.29964C18.2585 6.29964 18.0678 6.37866 17.9271 6.51931C17.7865 6.65996 17.7075 6.85072 17.7075 7.04963V7.49962H16.8075V7.04963C16.8075 6.85072 16.7285 6.65996 16.5878 6.51931C16.4472 6.37866 16.2564 6.29964 16.0575 6.29964C15.8586 6.29964 15.6678 6.37866 15.5272 6.51931C15.3865 6.65996 15.3075 6.85072 15.3075 7.04963V7.49962H14.2575C14.0586 7.49962 13.8679 7.57864 13.7272 7.71929C13.5866 7.85994 13.5075 8.0507 13.5075 8.24961C13.5075 8.44852 13.5866 8.63928 13.7272 8.77993C13.8679 8.92058 14.0586 8.9996 14.2575 8.9996H15.0075V14.2495H10.1024C9.7494 13.1262 9.66583 11.9356 9.85845 10.7741C10.0511 9.6125 10.5145 8.51261 11.2111 7.5634C11.9078 6.6142 12.8182 5.84235 13.8686 5.31035C14.919 4.77834 16.0799 4.50112 17.2573 4.50112C18.4347 4.50112 19.5956 4.77834 20.646 5.31035C21.6964 5.84235 22.6068 6.6142 23.3034 7.5634C24.0001 8.51261 24.4635 9.6125 24.6561 10.7741C24.8487 11.9356 24.7652 13.1262 24.4122 14.2495H20.9802ZM18.3825 8.9996C18.6808 8.9996 18.967 9.11812 19.1779 9.3291C19.3889 9.54007 19.5074 9.82622 19.5074 10.1246C19.5074 10.4229 19.3889 10.7091 19.1779 10.9201C18.967 11.131 18.6808 11.2496 18.3825 11.2496H16.5075V8.9996H18.3825ZM16.5075 12.7495H18.3825C18.5625 12.7494 18.7399 12.7925 18.8998 12.8752C19.0597 12.9579 19.1974 13.0778 19.3013 13.2248C19.4052 13.3718 19.4723 13.5416 19.4969 13.7199C19.5215 13.8982 19.5029 14.0799 19.4428 14.2495H16.5075V12.7495ZM3.75769 9.74959H5.4701C5.18679 11.2362 5.18679 12.7629 5.4701 14.2495C5.4701 14.2495 3.60085 14.2488 3.56635 14.2472C2.49706 14.1983 1.61741 13.3326 1.51429 12.2305C1.51429 12.2305 1.50763 12.0149 1.50763 11.9995C1.50833 11.403 1.74561 10.8311 2.16743 10.4093C2.58925 9.98752 3.16116 9.75026 3.75769 9.74959ZM34.5072 36.7492C34.5052 38.5387 33.7934 40.2544 32.528 41.5198C31.2626 42.7852 29.5469 43.497 27.7573 43.499H8.25762C6.46805 43.497 4.75236 42.7852 3.48695 41.5198C2.22153 40.2544 1.50974 38.5387 1.50773 36.7492V32.9992H8.25762V35.9992C8.25762 36.1981 8.33664 36.3888 8.47729 36.5295C8.61794 36.6701 8.8087 36.7492 9.00761 36.7492H15.1025C15.285 37.4561 15.7191 38.0723 16.3235 38.4821C16.9278 38.8919 17.6608 39.0672 18.3852 38.9752C19.1095 38.8832 19.7755 38.5302 20.2581 37.9823C20.7408 37.4344 21.0071 36.7293 21.0071 35.9992C21.0071 35.269 20.7408 34.5639 20.2581 34.016C19.7755 33.4682 19.1095 33.1151 18.3852 33.0231C17.6608 32.9311 16.9278 33.1065 16.3235 33.5163C15.7191 33.9261 15.285 34.5422 15.1025 35.2492H9.7576V32.2492C9.7576 32.0503 9.67858 31.8596 9.53793 31.7189C9.39728 31.5783 9.20652 31.4992 9.00761 31.4992H1.50773V29.9993H15.1025C15.285 30.7062 15.7191 31.3224 16.3235 31.7322C16.9278 32.142 17.6608 32.3173 18.3852 32.2253C19.1095 32.1333 19.7755 31.7803 20.2581 31.2324C20.7408 30.6845 21.0071 29.9794 21.0071 29.2493C21.0071 28.5191 20.7408 27.814 20.2581 27.2661C19.7755 26.7183 19.1095 26.3652 18.3852 26.2732C17.6608 26.1812 16.9278 26.3566 16.3235 26.7664C15.7191 27.1762 15.285 27.7923 15.1025 28.4993H1.50773V26.9993H9.00761C9.20652 26.9993 9.39728 26.9203 9.53793 26.7796C9.67858 26.639 9.7576 26.4482 9.7576 26.2493V22.4994H15.1025C15.285 23.2064 15.7191 23.8225 16.3235 24.2323C16.9278 24.6421 17.6608 24.8174 18.3852 24.7254C19.1095 24.6334 19.7755 24.2804 20.2581 23.7325C20.7408 23.1847 21.0071 22.4796 21.0071 21.7494C21.0071 21.0192 20.7408 20.3141 20.2581 19.7663C19.7755 19.2184 19.1095 18.8654 18.3852 18.7734C17.6608 18.6813 16.9278 18.8567 16.3235 19.2665C15.7191 19.6763 15.285 20.2924 15.1025 20.9994H9.00761C8.8087 20.9994 8.61794 21.0784 8.47729 21.2191C8.33664 21.3597 8.25762 21.5505 8.25762 21.7494V25.4993H1.50773V15.0287C2.084 15.4621 2.77745 15.7119 3.49773 15.7456C3.55482 15.7482 27.7573 15.7495 27.7573 15.7495C29.5469 15.7515 31.2626 16.4633 32.528 17.7287C33.7934 18.9941 34.5052 20.7098 34.5072 22.4994V23.2494H29.2573C27.8649 23.2494 26.5296 23.8025 25.545 24.787C24.5605 25.7716 24.0074 27.1069 24.0074 28.4993C24.0074 29.8917 24.5605 31.227 25.545 32.2115C26.5296 33.1961 27.8649 33.7492 29.2573 33.7492H34.5072V36.7492ZM16.5075 35.9992C16.5075 35.7025 16.5955 35.4125 16.7603 35.1658C16.9251 34.9192 17.1594 34.7269 17.4334 34.6134C17.7075 34.4998 18.0091 34.4701 18.3001 34.528C18.5911 34.5859 18.8583 34.7287 19.0681 34.9385C19.2779 35.1483 19.4207 35.4156 19.4786 35.7065C19.5365 35.9975 19.5068 36.2991 19.3933 36.5732C19.2797 36.8473 19.0875 37.0815 18.8408 37.2464C18.5941 37.4112 18.3041 37.4991 18.0075 37.4991C17.6098 37.4987 17.2285 37.3405 16.9473 37.0593C16.6661 36.7781 16.508 36.3968 16.5075 35.9992ZM16.5075 29.2493C16.5075 28.9526 16.5955 28.6626 16.7603 28.4159C16.9251 28.1693 17.1594 27.977 17.4334 27.8635C17.7075 27.7499 18.0091 27.7202 18.3001 27.7781C18.5911 27.836 18.8583 27.9789 19.0681 28.1886C19.2779 28.3984 19.4207 28.6657 19.4786 28.9566C19.5365 29.2476 19.5068 29.5492 19.3933 29.8233C19.2797 30.0974 19.0875 30.3316 18.8408 30.4965C18.5941 30.6613 18.3041 30.7493 18.0075 30.7493C17.6098 30.7488 17.2285 30.5906 16.9473 30.3094C16.6661 30.0282 16.508 29.6469 16.5075 29.2493ZM16.5075 21.7494C16.5075 21.4527 16.5955 21.1627 16.7603 20.9161C16.9251 20.6694 17.1594 20.4771 17.4334 20.3636C17.7075 20.2501 18.0091 20.2204 18.3001 20.2782C18.5911 20.3361 18.8583 20.479 19.0681 20.6888C19.2779 20.8985 19.4207 21.1658 19.4786 21.4568C19.5365 21.7477 19.5068 22.0493 19.3933 22.3234C19.2797 22.5975 19.0875 22.8318 18.8408 22.9966C18.5941 23.1614 18.3041 23.2494 18.0075 23.2494C17.6098 23.2489 17.2285 23.0907 16.9473 22.8095C16.6661 22.5283 16.508 22.1471 16.5075 21.7494ZM29.2573 32.2492C28.2627 32.2492 27.3089 31.8541 26.6057 31.1509C25.9024 30.4476 25.5073 29.4938 25.5073 28.4993C25.5073 27.5047 25.9024 26.5509 26.6057 25.8477C27.3089 25.1444 28.2627 24.7493 29.2573 24.7493H37.5072C38.034 24.7497 38.5516 24.6105 39.0071 24.3458V29.2493C39.0062 30.0446 38.6899 30.8072 38.1275 31.3696C37.5651 31.932 36.8025 32.2483 36.0072 32.2492H29.2573Z" fill="#E9EEF4"/>
<path d="M26.6323 28.4992C26.6323 29.0184 26.7863 29.5259 27.0747 29.9576C27.3631 30.3892 27.7731 30.7257 28.2528 30.9244C28.7324 31.123 29.2602 31.175 29.7694 31.0737C30.2786 30.9725 30.7463 30.7225 31.1134 30.3554C31.4805 29.9882 31.7305 29.5205 31.8318 29.0113C31.9331 28.5021 31.8811 27.9743 31.6824 27.4947C31.4837 27.015 31.1473 26.6051 30.7156 26.3167C30.284 26.0282 29.7764 25.8743 29.2573 25.8743C28.5613 25.8751 27.8941 26.1519 27.402 26.644C26.9099 27.1361 26.6331 27.8033 26.6323 28.4992ZM30.3823 28.4992C30.3823 28.7217 30.3163 28.9392 30.1927 29.1242C30.0691 29.3092 29.8934 29.4534 29.6878 29.5386C29.4822 29.6237 29.256 29.646 29.0378 29.6026C28.8196 29.5592 28.6191 29.452 28.4618 29.2947C28.3045 29.1374 28.1973 28.9369 28.1539 28.7187C28.1105 28.5005 28.1328 28.2743 28.2179 28.0687C28.3031 27.8632 28.4473 27.6875 28.6323 27.5638C28.8173 27.4402 29.0348 27.3742 29.2573 27.3742C29.5555 27.3746 29.8415 27.4932 30.0524 27.7041C30.2633 27.915 30.3819 28.201 30.3823 28.4992Z" fill="#E9EEF4"/>
</svg>
